<mxfile host="app.diagrams.net" modified="2024-03-13T18:50:32.502Z" agent="Mozilla/5.0 (Windows NT 10.0; Win64; x64) AppleWebKit/537.36 (KHTML, like Gecko) Chrome/122.0.0.0 Safari/537.36" etag="UOalFP386zlZL14w2qKr" version="24.0.5" type="device">
  <diagram id="yPxyJZ8AM_hMuL3Unpa9" name="simple gitflow">
    <mxGraphModel dx="3709" dy="1671" grid="1" gridSize="10" guides="1" tooltips="1" connect="1" arrows="1" fold="1" page="1" pageScale="1" pageWidth="1100" pageHeight="850" math="0" shadow="0">
      <root>
        <mxCell id="0" />
        <mxCell id="1" parent="0" />
        <mxCell id="pkGze3YQsq-xrmIJsWhv-1" value="" style="shape=link;html=1;rounded=0;" parent="1" edge="1" source="GAUOLHCDLPHEOuQpr5a8-228">
          <mxGeometry width="100" relative="1" as="geometry">
            <mxPoint x="370" y="-50" as="sourcePoint" />
            <mxPoint x="2150" y="-50" as="targetPoint" />
          </mxGeometry>
        </mxCell>
        <mxCell id="pkGze3YQsq-xrmIJsWhv-2" value="" style="shape=link;html=1;rounded=0;" parent="1" source="GAUOLHCDLPHEOuQpr5a8-216" edge="1">
          <mxGeometry width="100" relative="1" as="geometry">
            <mxPoint x="-360" y="480" as="sourcePoint" />
            <mxPoint x="2120" y="480" as="targetPoint" />
          </mxGeometry>
        </mxCell>
        <mxCell id="pkGze3YQsq-xrmIJsWhv-3" value="" style="shape=link;html=1;rounded=0;exitX=1.005;exitY=0.528;exitDx=0;exitDy=0;exitPerimeter=0;" parent="1" source="GAUOLHCDLPHEOuQpr5a8-202" edge="1">
          <mxGeometry width="100" relative="1" as="geometry">
            <mxPoint x="-380" y="1035" as="sourcePoint" />
            <mxPoint x="2100" y="1037" as="targetPoint" />
          </mxGeometry>
        </mxCell>
        <mxCell id="pkGze3YQsq-xrmIJsWhv-26" value="" style="shape=link;html=1;rounded=0;" parent="1" source="GAUOLHCDLPHEOuQpr5a8-107" edge="1">
          <mxGeometry width="100" relative="1" as="geometry">
            <mxPoint x="-850" y="-50" as="sourcePoint" />
            <mxPoint x="290" y="-50" as="targetPoint" />
          </mxGeometry>
        </mxCell>
        <mxCell id="pkGze3YQsq-xrmIJsWhv-27" value="&lt;b&gt;&lt;font style=&quot;font-size: 15px;&quot;&gt;SW3&lt;/font&gt;&lt;/b&gt;" style="whiteSpace=wrap;html=1;aspect=fixed;fillColor=#f8cecc;strokeColor=#b85450;" parent="1" vertex="1">
          <mxGeometry x="290" y="-90" width="80" height="80" as="geometry" />
        </mxCell>
        <mxCell id="pkGze3YQsq-xrmIJsWhv-31" value="" style="shape=link;html=1;rounded=0;" parent="1" target="pkGze3YQsq-xrmIJsWhv-30" edge="1" source="GAUOLHCDLPHEOuQpr5a8-88">
          <mxGeometry width="100" relative="1" as="geometry">
            <mxPoint x="-1190" y="470" as="sourcePoint" />
            <mxPoint x="1520" y="480" as="targetPoint" />
          </mxGeometry>
        </mxCell>
        <mxCell id="pkGze3YQsq-xrmIJsWhv-30" value="&lt;b&gt;&lt;font style=&quot;font-size: 15px;&quot;&gt;SW2&lt;/font&gt;&lt;/b&gt;" style="whiteSpace=wrap;html=1;aspect=fixed;fillColor=#f8cecc;strokeColor=#b85450;" parent="1" vertex="1">
          <mxGeometry x="160" y="435" width="80" height="80" as="geometry" />
        </mxCell>
        <mxCell id="pkGze3YQsq-xrmIJsWhv-33" value="" style="shape=link;html=1;rounded=0;" parent="1" target="pkGze3YQsq-xrmIJsWhv-32" edge="1" source="GAUOLHCDLPHEOuQpr5a8-82">
          <mxGeometry width="100" relative="1" as="geometry">
            <mxPoint x="-1010" y="1035" as="sourcePoint" />
            <mxPoint x="1500" y="1035" as="targetPoint" />
          </mxGeometry>
        </mxCell>
        <mxCell id="pkGze3YQsq-xrmIJsWhv-32" value="&lt;font style=&quot;font-size: 15px;&quot;&gt;&lt;b&gt;SW1&lt;/b&gt;&lt;/font&gt;" style="whiteSpace=wrap;html=1;aspect=fixed;fillColor=#f8cecc;strokeColor=#b85450;" parent="1" vertex="1">
          <mxGeometry x="60" y="995" width="80" height="80" as="geometry" />
        </mxCell>
        <mxCell id="pkGze3YQsq-xrmIJsWhv-35" value="" style="shape=link;html=1;rounded=0;" parent="1" target="pkGze3YQsq-xrmIJsWhv-34" edge="1" source="GAUOLHCDLPHEOuQpr5a8-143">
          <mxGeometry width="100" relative="1" as="geometry">
            <mxPoint x="810" y="570" as="sourcePoint" />
            <mxPoint x="1550" as="targetPoint" />
            <Array as="points" />
          </mxGeometry>
        </mxCell>
        <mxCell id="pkGze3YQsq-xrmIJsWhv-34" value="&lt;b&gt;&lt;font style=&quot;font-size: 15px;&quot;&gt;SW6&lt;/font&gt;&lt;/b&gt;" style="whiteSpace=wrap;html=1;aspect=fixed;fillColor=#f8cecc;strokeColor=#b85450;" parent="1" vertex="1">
          <mxGeometry x="1020" y="-90" width="80" height="80" as="geometry" />
        </mxCell>
        <mxCell id="pkGze3YQsq-xrmIJsWhv-37" value="" style="shape=link;html=1;rounded=0;width=3.333333333333334;" parent="1" source="GAUOLHCDLPHEOuQpr5a8-122" target="pkGze3YQsq-xrmIJsWhv-36" edge="1">
          <mxGeometry width="100" relative="1" as="geometry">
            <mxPoint x="240" y="475" as="sourcePoint" />
            <mxPoint x="1520" y="480" as="targetPoint" />
          </mxGeometry>
        </mxCell>
        <mxCell id="pkGze3YQsq-xrmIJsWhv-36" value="&lt;b&gt;&lt;font style=&quot;font-size: 15px;&quot;&gt;SW5&lt;/font&gt;&lt;/b&gt;" style="whiteSpace=wrap;html=1;aspect=fixed;fillColor=#f8cecc;strokeColor=#b85450;" parent="1" vertex="1">
          <mxGeometry x="870" y="435" width="80" height="80" as="geometry" />
        </mxCell>
        <mxCell id="pkGze3YQsq-xrmIJsWhv-39" value="" style="shape=link;html=1;rounded=0;entryX=0.085;entryY=0.488;entryDx=0;entryDy=0;entryPerimeter=0;" parent="1" source="GAUOLHCDLPHEOuQpr5a8-197" target="GAUOLHCDLPHEOuQpr5a8-27" edge="1">
          <mxGeometry width="100" relative="1" as="geometry">
            <mxPoint x="100" y="1035" as="sourcePoint" />
            <mxPoint x="1500" y="1035" as="targetPoint" />
          </mxGeometry>
        </mxCell>
        <mxCell id="pkGze3YQsq-xrmIJsWhv-49" value="" style="shape=link;html=1;rounded=0;" parent="1" target="pkGze3YQsq-xrmIJsWhv-48" edge="1" source="GAUOLHCDLPHEOuQpr5a8-218">
          <mxGeometry width="100" relative="1" as="geometry">
            <mxPoint x="-1200" y="-50" as="sourcePoint" />
            <mxPoint x="290" y="-50" as="targetPoint" />
          </mxGeometry>
        </mxCell>
        <mxCell id="pkGze3YQsq-xrmIJsWhv-48" value="&lt;b&gt;MS1_L1&lt;/b&gt;" style="html=1;whiteSpace=wrap;aspect=fixed;shape=isoRectangle;fillColor=#ffe6cc;strokeColor=#d79b00;" parent="1" vertex="1">
          <mxGeometry x="-790" y="-90" width="133.33" height="80" as="geometry" />
        </mxCell>
        <mxCell id="pkGze3YQsq-xrmIJsWhv-51" value="" style="shape=link;html=1;rounded=0;" parent="1" source="GAUOLHCDLPHEOuQpr5a8-63" target="pkGze3YQsq-xrmIJsWhv-50" edge="1">
          <mxGeometry width="100" relative="1" as="geometry">
            <mxPoint x="-657" y="-50" as="sourcePoint" />
            <mxPoint x="290" y="-50" as="targetPoint" />
          </mxGeometry>
        </mxCell>
        <mxCell id="pkGze3YQsq-xrmIJsWhv-50" value="&lt;b&gt;MS2_L1&lt;/b&gt;" style="html=1;whiteSpace=wrap;aspect=fixed;shape=isoRectangle;fillColor=#ffe6cc;strokeColor=#d79b00;" parent="1" vertex="1">
          <mxGeometry x="-390" y="-90" width="133.33" height="80" as="geometry" />
        </mxCell>
        <mxCell id="pkGze3YQsq-xrmIJsWhv-53" value="" style="shape=link;html=1;rounded=0;" parent="1" source="GAUOLHCDLPHEOuQpr5a8-220" target="pkGze3YQsq-xrmIJsWhv-52" edge="1">
          <mxGeometry width="100" relative="1" as="geometry">
            <mxPoint x="-377" y="-50" as="sourcePoint" />
            <mxPoint x="290" y="-50" as="targetPoint" />
          </mxGeometry>
        </mxCell>
        <mxCell id="pkGze3YQsq-xrmIJsWhv-52" value="&lt;b&gt;MS3_L1&lt;/b&gt;" style="html=1;whiteSpace=wrap;aspect=fixed;shape=isoRectangle;fillColor=#ffe6cc;strokeColor=#d79b00;" parent="1" vertex="1">
          <mxGeometry x="-40" y="-90" width="133.33" height="80" as="geometry" />
        </mxCell>
        <mxCell id="pkGze3YQsq-xrmIJsWhv-54" value="&lt;b&gt;MS7_L2&lt;/b&gt;" style="html=1;whiteSpace=wrap;aspect=fixed;shape=isoRectangle;fillColor=#ffe6cc;strokeColor=#d79b00;" parent="1" vertex="1">
          <mxGeometry x="-953.33" y="435" width="133.33" height="80" as="geometry" />
        </mxCell>
        <mxCell id="pkGze3YQsq-xrmIJsWhv-55" value="&lt;b&gt;MS8_L2&lt;/b&gt;" style="html=1;whiteSpace=wrap;aspect=fixed;shape=isoRectangle;fillColor=#ffe6cc;strokeColor=#d79b00;" parent="1" vertex="1">
          <mxGeometry x="-553.33" y="435" width="133.33" height="80" as="geometry" />
        </mxCell>
        <mxCell id="GAUOLHCDLPHEOuQpr5a8-2" value="" style="shape=link;html=1;rounded=0;" edge="1" parent="1" source="GAUOLHCDLPHEOuQpr5a8-224" target="GAUOLHCDLPHEOuQpr5a8-1">
          <mxGeometry width="100" relative="1" as="geometry">
            <mxPoint x="370" y="-50" as="sourcePoint" />
            <mxPoint x="1550" y="-50" as="targetPoint" />
          </mxGeometry>
        </mxCell>
        <mxCell id="GAUOLHCDLPHEOuQpr5a8-1" value="&lt;b&gt;MS4_L1&lt;/b&gt;" style="html=1;whiteSpace=wrap;aspect=fixed;shape=isoRectangle;fillColor=#ffe6cc;strokeColor=#d79b00;" vertex="1" parent="1">
          <mxGeometry x="620" y="-90" width="133.33" height="80" as="geometry" />
        </mxCell>
        <mxCell id="GAUOLHCDLPHEOuQpr5a8-3" value="&lt;b&gt;MS5_L1&lt;/b&gt;" style="html=1;whiteSpace=wrap;aspect=fixed;shape=isoRectangle;fillColor=#ffe6cc;strokeColor=#d79b00;" vertex="1" parent="1">
          <mxGeometry x="1340" y="-90" width="133.33" height="80" as="geometry" />
        </mxCell>
        <mxCell id="GAUOLHCDLPHEOuQpr5a8-5" value="" style="shape=link;html=1;rounded=0;entryX=0;entryY=0.5;entryDx=0;entryDy=0;" edge="1" parent="1" source="GAUOLHCDLPHEOuQpr5a8-141" target="pkGze3YQsq-xrmIJsWhv-34">
          <mxGeometry width="100" relative="1" as="geometry">
            <mxPoint x="753" y="-50" as="sourcePoint" />
            <mxPoint x="1010" y="-50" as="targetPoint" />
          </mxGeometry>
        </mxCell>
        <mxCell id="GAUOLHCDLPHEOuQpr5a8-4" value="&lt;b&gt;MS6_L1&lt;/b&gt;" style="html=1;whiteSpace=wrap;aspect=fixed;shape=isoRectangle;fillColor=#ffe6cc;strokeColor=#d79b00;" vertex="1" parent="1">
          <mxGeometry x="1730" y="-90" width="133.33" height="80" as="geometry" />
        </mxCell>
        <mxCell id="GAUOLHCDLPHEOuQpr5a8-7" value="" style="shape=link;html=1;rounded=0;entryX=0;entryY=0.5;entryDx=0;entryDy=0;entryPerimeter=0;" edge="1" parent="1" source="GAUOLHCDLPHEOuQpr5a8-66" target="GAUOLHCDLPHEOuQpr5a8-4">
          <mxGeometry width="100" relative="1" as="geometry">
            <mxPoint x="1473.33" y="-50.620000000000005" as="sourcePoint" />
            <mxPoint x="1630.33" y="-50.620000000000005" as="targetPoint" />
          </mxGeometry>
        </mxCell>
        <mxCell id="GAUOLHCDLPHEOuQpr5a8-8" value="" style="shape=link;html=1;rounded=0;exitX=1;exitY=0.5;exitDx=0;exitDy=0;" edge="1" parent="1" source="GAUOLHCDLPHEOuQpr5a8-226">
          <mxGeometry width="100" relative="1" as="geometry">
            <mxPoint x="1110" y="-50.620000000000005" as="sourcePoint" />
            <mxPoint x="1340" y="-50" as="targetPoint" />
          </mxGeometry>
        </mxCell>
        <mxCell id="GAUOLHCDLPHEOuQpr5a8-10" value="" style="shape=link;html=1;rounded=0;" edge="1" parent="1" source="GAUOLHCDLPHEOuQpr5a8-210" target="GAUOLHCDLPHEOuQpr5a8-9">
          <mxGeometry width="100" relative="1" as="geometry">
            <mxPoint x="240" y="475" as="sourcePoint" />
            <mxPoint x="870" y="480" as="targetPoint" />
          </mxGeometry>
        </mxCell>
        <mxCell id="GAUOLHCDLPHEOuQpr5a8-9" value="&lt;b&gt;M10_L2&lt;/b&gt;" style="html=1;whiteSpace=wrap;aspect=fixed;shape=isoRectangle;fillColor=#ffe6cc;strokeColor=#d79b00;" vertex="1" parent="1">
          <mxGeometry x="500" y="435" width="133.33" height="80" as="geometry" />
        </mxCell>
        <mxCell id="GAUOLHCDLPHEOuQpr5a8-12" value="" style="shape=link;html=1;rounded=0;" edge="1" parent="1" source="GAUOLHCDLPHEOuQpr5a8-214" target="GAUOLHCDLPHEOuQpr5a8-11">
          <mxGeometry width="100" relative="1" as="geometry">
            <mxPoint x="950" y="480" as="sourcePoint" />
            <mxPoint x="1990" y="480" as="targetPoint" />
          </mxGeometry>
        </mxCell>
        <mxCell id="GAUOLHCDLPHEOuQpr5a8-11" value="&lt;b&gt;M11_L2&lt;/b&gt;" style="html=1;whiteSpace=wrap;aspect=fixed;shape=isoRectangle;fillColor=#ffe6cc;strokeColor=#d79b00;" vertex="1" parent="1">
          <mxGeometry x="1176.67" y="440" width="133.33" height="80" as="geometry" />
        </mxCell>
        <mxCell id="GAUOLHCDLPHEOuQpr5a8-14" value="" style="shape=link;html=1;rounded=0;" edge="1" parent="1" source="GAUOLHCDLPHEOuQpr5a8-69" target="GAUOLHCDLPHEOuQpr5a8-13">
          <mxGeometry width="100" relative="1" as="geometry">
            <mxPoint x="1353" y="480" as="sourcePoint" />
            <mxPoint x="1990" y="480" as="targetPoint" />
          </mxGeometry>
        </mxCell>
        <mxCell id="GAUOLHCDLPHEOuQpr5a8-13" value="&lt;b&gt;M12_L2&lt;/b&gt;" style="html=1;whiteSpace=wrap;aspect=fixed;shape=isoRectangle;fillColor=#ffe6cc;strokeColor=#d79b00;" vertex="1" parent="1">
          <mxGeometry x="1566.67" y="440" width="133.33" height="80" as="geometry" />
        </mxCell>
        <mxCell id="GAUOLHCDLPHEOuQpr5a8-16" value="&lt;b&gt;MS14_L3&lt;/b&gt;" style="html=1;whiteSpace=wrap;aspect=fixed;shape=isoRectangle;fillColor=#ffe6cc;strokeColor=#d79b00;" vertex="1" parent="1">
          <mxGeometry x="-693" y="995" width="133.33" height="80" as="geometry" />
        </mxCell>
        <mxCell id="GAUOLHCDLPHEOuQpr5a8-18" value="" style="shape=link;html=1;rounded=0;" edge="1" parent="1" source="GAUOLHCDLPHEOuQpr5a8-188" target="GAUOLHCDLPHEOuQpr5a8-15">
          <mxGeometry width="100" relative="1" as="geometry">
            <mxPoint x="-1200" y="1030" as="sourcePoint" />
            <mxPoint x="20" y="1035" as="targetPoint" />
          </mxGeometry>
        </mxCell>
        <mxCell id="GAUOLHCDLPHEOuQpr5a8-15" value="&lt;b&gt;MS13_L3&lt;/b&gt;" style="html=1;whiteSpace=wrap;aspect=fixed;shape=isoRectangle;fillColor=#ffe6cc;strokeColor=#d79b00;" vertex="1" parent="1">
          <mxGeometry x="-1073.33" y="990" width="133.33" height="80" as="geometry" />
        </mxCell>
        <mxCell id="pkGze3YQsq-xrmIJsWhv-56" value="&lt;b&gt;MS9_L2&lt;/b&gt;" style="html=1;whiteSpace=wrap;aspect=fixed;shape=isoRectangle;fillColor=#ffe6cc;strokeColor=#d79b00;" parent="1" vertex="1">
          <mxGeometry x="-193.32999999999998" y="435" width="133.33" height="80" as="geometry" />
        </mxCell>
        <mxCell id="GAUOLHCDLPHEOuQpr5a8-21" value="" style="shape=link;html=1;rounded=0;entryX=0.015;entryY=0.511;entryDx=0;entryDy=0;entryPerimeter=0;exitX=0.974;exitY=0.506;exitDx=0;exitDy=0;exitPerimeter=0;" edge="1" parent="1" source="GAUOLHCDLPHEOuQpr5a8-67" target="pkGze3YQsq-xrmIJsWhv-55">
          <mxGeometry width="100" relative="1" as="geometry">
            <mxPoint x="-780" y="480" as="sourcePoint" />
            <mxPoint x="-680" y="480" as="targetPoint" />
          </mxGeometry>
        </mxCell>
        <mxCell id="GAUOLHCDLPHEOuQpr5a8-22" value="" style="shape=link;html=1;rounded=0;entryX=0.021;entryY=0.49;entryDx=0;entryDy=0;entryPerimeter=0;" edge="1" parent="1" source="GAUOLHCDLPHEOuQpr5a8-204" target="pkGze3YQsq-xrmIJsWhv-54">
          <mxGeometry width="100" relative="1" as="geometry">
            <mxPoint x="-1200" y="474" as="sourcePoint" />
            <mxPoint x="-942" y="479" as="targetPoint" />
          </mxGeometry>
        </mxCell>
        <mxCell id="GAUOLHCDLPHEOuQpr5a8-23" value="" style="shape=link;html=1;rounded=0;entryX=0.064;entryY=0.497;entryDx=0;entryDy=0;entryPerimeter=0;" edge="1" parent="1" source="GAUOLHCDLPHEOuQpr5a8-206" target="pkGze3YQsq-xrmIJsWhv-56">
          <mxGeometry width="100" relative="1" as="geometry">
            <mxPoint x="-390" y="480" as="sourcePoint" />
            <mxPoint x="-290" y="480" as="targetPoint" />
          </mxGeometry>
        </mxCell>
        <mxCell id="GAUOLHCDLPHEOuQpr5a8-24" value="" style="shape=link;html=1;rounded=0;exitX=1.018;exitY=0.484;exitDx=0;exitDy=0;exitPerimeter=0;" edge="1" parent="1" source="GAUOLHCDLPHEOuQpr5a8-190" target="GAUOLHCDLPHEOuQpr5a8-17">
          <mxGeometry width="100" relative="1" as="geometry">
            <mxPoint x="-940" y="1035" as="sourcePoint" />
            <mxPoint x="20" y="1035" as="targetPoint" />
          </mxGeometry>
        </mxCell>
        <mxCell id="GAUOLHCDLPHEOuQpr5a8-17" value="&lt;b&gt;MS15_L3&lt;/b&gt;" style="html=1;whiteSpace=wrap;aspect=fixed;shape=isoRectangle;fillColor=#ffe6cc;strokeColor=#d79b00;" vertex="1" parent="1">
          <mxGeometry x="-336.65999999999997" y="995" width="133.33" height="80" as="geometry" />
        </mxCell>
        <mxCell id="GAUOLHCDLPHEOuQpr5a8-25" value="" style="shape=link;html=1;rounded=0;entryX=0;entryY=0.478;entryDx=0;entryDy=0;entryPerimeter=0;" edge="1" parent="1" source="GAUOLHCDLPHEOuQpr5a8-70" target="GAUOLHCDLPHEOuQpr5a8-16">
          <mxGeometry width="100" relative="1" as="geometry">
            <mxPoint x="-920" y="1035" as="sourcePoint" />
            <mxPoint x="-820" y="1035" as="targetPoint" />
          </mxGeometry>
        </mxCell>
        <mxCell id="GAUOLHCDLPHEOuQpr5a8-26" value="" style="shape=link;html=1;rounded=0;" edge="1" parent="1" target="pkGze3YQsq-xrmIJsWhv-38">
          <mxGeometry width="100" relative="1" as="geometry">
            <mxPoint x="780" y="1035" as="sourcePoint" />
            <mxPoint x="992" y="735" as="targetPoint" />
            <Array as="points" />
          </mxGeometry>
        </mxCell>
        <mxCell id="pkGze3YQsq-xrmIJsWhv-38" value="&lt;b&gt;&lt;font style=&quot;font-size: 15px;&quot;&gt;SW4&lt;/font&gt;&lt;/b&gt;" style="whiteSpace=wrap;html=1;aspect=fixed;fillColor=#f8cecc;strokeColor=#b85450;" parent="1" vertex="1">
          <mxGeometry x="750" y="995" width="80" height="80" as="geometry" />
        </mxCell>
        <mxCell id="GAUOLHCDLPHEOuQpr5a8-27" value="&lt;b&gt;MS16_L3&lt;/b&gt;" style="html=1;whiteSpace=wrap;aspect=fixed;shape=isoRectangle;fillColor=#ffe6cc;strokeColor=#d79b00;" vertex="1" parent="1">
          <mxGeometry x="389.99999999999994" y="995" width="133.33" height="80" as="geometry" />
        </mxCell>
        <mxCell id="GAUOLHCDLPHEOuQpr5a8-29" value="" style="shape=link;html=1;rounded=0;" edge="1" parent="1" source="GAUOLHCDLPHEOuQpr5a8-199" target="GAUOLHCDLPHEOuQpr5a8-28">
          <mxGeometry width="100" relative="1" as="geometry">
            <mxPoint x="830" y="1035" as="sourcePoint" />
            <mxPoint x="1980" y="1035" as="targetPoint" />
          </mxGeometry>
        </mxCell>
        <mxCell id="GAUOLHCDLPHEOuQpr5a8-28" value="&lt;b&gt;MS17_L3&lt;/b&gt;" style="html=1;whiteSpace=wrap;aspect=fixed;shape=isoRectangle;fillColor=#ffe6cc;strokeColor=#d79b00;" vertex="1" parent="1">
          <mxGeometry x="1050" y="995" width="133.33" height="80" as="geometry" />
        </mxCell>
        <mxCell id="GAUOLHCDLPHEOuQpr5a8-30" value="&lt;b&gt;MS18_L3&lt;/b&gt;" style="html=1;whiteSpace=wrap;aspect=fixed;shape=isoRectangle;fillColor=#ffe6cc;strokeColor=#d79b00;" vertex="1" parent="1">
          <mxGeometry x="1423.3400000000001" y="995" width="133.33" height="80" as="geometry" />
        </mxCell>
        <mxCell id="GAUOLHCDLPHEOuQpr5a8-31" value="&lt;b&gt;MS20_J1&lt;/b&gt;" style="html=1;whiteSpace=wrap;aspect=fixed;shape=isoRectangle;fillColor=#ffe6cc;strokeColor=#d79b00;" vertex="1" parent="1">
          <mxGeometry x="-469.9899999999999" y="1215" width="133.33" height="80" as="geometry" />
        </mxCell>
        <mxCell id="GAUOLHCDLPHEOuQpr5a8-35" value="&lt;b&gt;MS19_J1&lt;/b&gt;" style="html=1;whiteSpace=wrap;aspect=fixed;shape=isoRectangle;fillColor=#ffe6cc;strokeColor=#d79b00;" vertex="1" parent="1">
          <mxGeometry x="-829.9999999999999" y="1215" width="133.33" height="80" as="geometry" />
        </mxCell>
        <mxCell id="GAUOLHCDLPHEOuQpr5a8-38" value="" style="shape=link;html=1;rounded=0;" edge="1" parent="1" source="GAUOLHCDLPHEOuQpr5a8-73" target="GAUOLHCDLPHEOuQpr5a8-35">
          <mxGeometry width="100" relative="1" as="geometry">
            <mxPoint x="-1190" y="1255" as="sourcePoint" />
            <mxPoint x="-826.33" y="1260" as="targetPoint" />
          </mxGeometry>
        </mxCell>
        <mxCell id="GAUOLHCDLPHEOuQpr5a8-39" value="" style="shape=link;html=1;rounded=0;entryX=0.037;entryY=0.498;entryDx=0;entryDy=0;entryPerimeter=0;" edge="1" parent="1" source="GAUOLHCDLPHEOuQpr5a8-182" target="GAUOLHCDLPHEOuQpr5a8-31">
          <mxGeometry width="100" relative="1" as="geometry">
            <mxPoint x="-660" y="1255" as="sourcePoint" />
            <mxPoint x="-560" y="1255" as="targetPoint" />
          </mxGeometry>
        </mxCell>
        <mxCell id="GAUOLHCDLPHEOuQpr5a8-40" value="&lt;b&gt;MS23_J2&lt;/b&gt;" style="html=1;whiteSpace=wrap;aspect=fixed;shape=isoRectangle;fillColor=#ffe6cc;strokeColor=#d79b00;" vertex="1" parent="1">
          <mxGeometry x="1863.3300000000002" y="-320" width="133.33" height="80" as="geometry" />
        </mxCell>
        <mxCell id="GAUOLHCDLPHEOuQpr5a8-41" value="MS22_J2" style="html=1;whiteSpace=wrap;aspect=fixed;shape=isoRectangle;fillColor=#ffe6cc;strokeColor=#d79b00;" vertex="1" parent="1">
          <mxGeometry x="1473.33" y="-320" width="133.33" height="80" as="geometry" />
        </mxCell>
        <mxCell id="GAUOLHCDLPHEOuQpr5a8-45" value="" style="shape=link;html=1;rounded=0;exitX=0.997;exitY=0.495;exitDx=0;exitDy=0;exitPerimeter=0;width=-8.461538461538462;" edge="1" parent="1" source="GAUOLHCDLPHEOuQpr5a8-234">
          <mxGeometry width="100" relative="1" as="geometry">
            <mxPoint x="2060" y="-270.77" as="sourcePoint" />
            <mxPoint x="2150" y="-280" as="targetPoint" />
          </mxGeometry>
        </mxCell>
        <mxCell id="GAUOLHCDLPHEOuQpr5a8-46" value="" style="shape=link;html=1;rounded=0;exitX=0.957;exitY=0.519;exitDx=0;exitDy=0;exitPerimeter=0;" edge="1" parent="1" source="GAUOLHCDLPHEOuQpr5a8-74" target="GAUOLHCDLPHEOuQpr5a8-40">
          <mxGeometry width="100" relative="1" as="geometry">
            <mxPoint x="1680" y="-290" as="sourcePoint" />
            <mxPoint x="1780" y="-290" as="targetPoint" />
          </mxGeometry>
        </mxCell>
        <mxCell id="GAUOLHCDLPHEOuQpr5a8-48" value="" style="shape=link;html=1;rounded=0;exitX=0.546;exitY=-0.063;exitDx=0;exitDy=0;exitPerimeter=0;" edge="1" parent="1" source="GAUOLHCDLPHEOuQpr5a8-241" target="GAUOLHCDLPHEOuQpr5a8-87">
          <mxGeometry width="100" relative="1" as="geometry">
            <mxPoint x="170" y="680" as="sourcePoint" />
            <mxPoint x="270" y="680" as="targetPoint" />
          </mxGeometry>
        </mxCell>
        <mxCell id="GAUOLHCDLPHEOuQpr5a8-49" value="" style="shape=link;html=1;rounded=0;entryX=0.5;entryY=1;entryDx=0;entryDy=0;exitX=0.544;exitY=0.011;exitDx=0;exitDy=0;exitPerimeter=0;" edge="1" parent="1" source="GAUOLHCDLPHEOuQpr5a8-78" target="pkGze3YQsq-xrmIJsWhv-27">
          <mxGeometry width="100" relative="1" as="geometry">
            <mxPoint x="190" y="260" as="sourcePoint" />
            <mxPoint x="290" y="260" as="targetPoint" />
          </mxGeometry>
        </mxCell>
        <mxCell id="GAUOLHCDLPHEOuQpr5a8-50" value="" style="shape=link;html=1;rounded=0;entryX=0.379;entryY=0.987;entryDx=0;entryDy=0;exitX=1;exitY=0.5;exitDx=0;exitDy=0;entryPerimeter=0;" edge="1" parent="1" source="GAUOLHCDLPHEOuQpr5a8-184" target="GAUOLHCDLPHEOuQpr5a8-81">
          <mxGeometry width="100" relative="1" as="geometry">
            <mxPoint x="-150" y="1240" as="sourcePoint" />
            <mxPoint x="-20" y="1260" as="targetPoint" />
            <Array as="points" />
          </mxGeometry>
        </mxCell>
        <mxCell id="GAUOLHCDLPHEOuQpr5a8-51" value="" style="shape=link;html=1;rounded=0;exitX=0.986;exitY=0.508;exitDx=0;exitDy=0;exitPerimeter=0;" edge="1" parent="1" source="GAUOLHCDLPHEOuQpr5a8-71" target="pkGze3YQsq-xrmIJsWhv-38">
          <mxGeometry width="100" relative="1" as="geometry">
            <mxPoint x="570" y="1050" as="sourcePoint" />
            <mxPoint x="670" y="1050" as="targetPoint" />
          </mxGeometry>
        </mxCell>
        <mxCell id="GAUOLHCDLPHEOuQpr5a8-52" value="" style="shape=link;html=1;rounded=0;exitX=1.016;exitY=0.528;exitDx=0;exitDy=0;exitPerimeter=0;entryX=0.009;entryY=0.508;entryDx=0;entryDy=0;entryPerimeter=0;" edge="1" parent="1" source="GAUOLHCDLPHEOuQpr5a8-72" target="GAUOLHCDLPHEOuQpr5a8-30">
          <mxGeometry width="100" relative="1" as="geometry">
            <mxPoint x="1270" y="1040" as="sourcePoint" />
            <mxPoint x="1370" y="1040" as="targetPoint" />
          </mxGeometry>
        </mxCell>
        <mxCell id="GAUOLHCDLPHEOuQpr5a8-81" value="" style="shape=sumEllipse;perimeter=ellipsePerimeter;whiteSpace=wrap;html=1;backgroundOutline=1;fillColor=#dae8fc;strokeColor=#6c8ebf;" vertex="1" parent="1">
          <mxGeometry x="30" y="1090" width="70" height="70" as="geometry" />
        </mxCell>
        <mxCell id="GAUOLHCDLPHEOuQpr5a8-83" value="" style="shape=link;html=1;rounded=0;" edge="1" parent="1" source="GAUOLHCDLPHEOuQpr5a8-192" target="GAUOLHCDLPHEOuQpr5a8-82">
          <mxGeometry width="100" relative="1" as="geometry">
            <mxPoint x="-203" y="1035" as="sourcePoint" />
            <mxPoint x="60" y="1035" as="targetPoint" />
          </mxGeometry>
        </mxCell>
        <mxCell id="GAUOLHCDLPHEOuQpr5a8-82" value="" style="shape=sumEllipse;perimeter=ellipsePerimeter;whiteSpace=wrap;html=1;backgroundOutline=1;fillColor=#dae8fc;strokeColor=#6c8ebf;" vertex="1" parent="1">
          <mxGeometry x="-28.33" y="1000" width="70" height="70" as="geometry" />
        </mxCell>
        <mxCell id="GAUOLHCDLPHEOuQpr5a8-84" value="" style="shape=sumEllipse;perimeter=ellipsePerimeter;whiteSpace=wrap;html=1;backgroundOutline=1;fillColor=#dae8fc;strokeColor=#6c8ebf;" vertex="1" parent="1">
          <mxGeometry x="73.33" y="910" width="70" height="70" as="geometry" />
        </mxCell>
        <mxCell id="GAUOLHCDLPHEOuQpr5a8-86" value="" style="shape=link;html=1;rounded=0;entryX=0.085;entryY=0.488;entryDx=0;entryDy=0;entryPerimeter=0;" edge="1" parent="1" source="pkGze3YQsq-xrmIJsWhv-32" target="GAUOLHCDLPHEOuQpr5a8-85">
          <mxGeometry width="100" relative="1" as="geometry">
            <mxPoint x="140" y="1035" as="sourcePoint" />
            <mxPoint x="401" y="1034" as="targetPoint" />
          </mxGeometry>
        </mxCell>
        <mxCell id="GAUOLHCDLPHEOuQpr5a8-85" value="" style="shape=sumEllipse;perimeter=ellipsePerimeter;whiteSpace=wrap;html=1;backgroundOutline=1;fillColor=#dae8fc;strokeColor=#6c8ebf;" vertex="1" parent="1">
          <mxGeometry x="160" y="1000" width="70" height="70" as="geometry" />
        </mxCell>
        <mxCell id="GAUOLHCDLPHEOuQpr5a8-87" value="" style="shape=sumEllipse;perimeter=ellipsePerimeter;whiteSpace=wrap;html=1;backgroundOutline=1;fillColor=#dae8fc;strokeColor=#6c8ebf;" vertex="1" parent="1">
          <mxGeometry x="153.33" y="535" width="70" height="70" as="geometry" />
        </mxCell>
        <mxCell id="GAUOLHCDLPHEOuQpr5a8-91" value="" style="shape=link;html=1;rounded=0;" edge="1" parent="1" source="GAUOLHCDLPHEOuQpr5a8-208" target="GAUOLHCDLPHEOuQpr5a8-88">
          <mxGeometry width="100" relative="1" as="geometry">
            <mxPoint x="-60" y="475" as="sourcePoint" />
            <mxPoint x="160" y="475" as="targetPoint" />
          </mxGeometry>
        </mxCell>
        <mxCell id="GAUOLHCDLPHEOuQpr5a8-88" value="" style="shape=sumEllipse;perimeter=ellipsePerimeter;whiteSpace=wrap;html=1;backgroundOutline=1;fillColor=#dae8fc;strokeColor=#6c8ebf;" vertex="1" parent="1">
          <mxGeometry x="71.66" y="440" width="70" height="70" as="geometry" />
        </mxCell>
        <mxCell id="GAUOLHCDLPHEOuQpr5a8-92" value="" style="shape=link;html=1;rounded=0;exitX=0.5;exitY=0;exitDx=0;exitDy=0;" edge="1" parent="1" source="GAUOLHCDLPHEOuQpr5a8-87" target="pkGze3YQsq-xrmIJsWhv-30">
          <mxGeometry width="100" relative="1" as="geometry">
            <mxPoint x="280" y="680" as="sourcePoint" />
            <mxPoint x="380" y="680" as="targetPoint" />
          </mxGeometry>
        </mxCell>
        <mxCell id="GAUOLHCDLPHEOuQpr5a8-93" value="" style="shape=link;html=1;rounded=0;entryX=0.4;entryY=0.997;entryDx=0;entryDy=0;exitX=0.5;exitY=0;exitDx=0;exitDy=0;entryPerimeter=0;" edge="1" parent="1" source="pkGze3YQsq-xrmIJsWhv-30" target="GAUOLHCDLPHEOuQpr5a8-89">
          <mxGeometry width="100" relative="1" as="geometry">
            <mxPoint x="200" y="435" as="sourcePoint" />
            <mxPoint x="310" y="70" as="targetPoint" />
          </mxGeometry>
        </mxCell>
        <mxCell id="GAUOLHCDLPHEOuQpr5a8-89" value="" style="shape=sumEllipse;perimeter=ellipsePerimeter;whiteSpace=wrap;html=1;backgroundOutline=1;fillColor=#dae8fc;strokeColor=#6c8ebf;" vertex="1" parent="1">
          <mxGeometry x="180" y="340" width="70" height="70" as="geometry" />
        </mxCell>
        <mxCell id="GAUOLHCDLPHEOuQpr5a8-95" value="" style="shape=link;html=1;rounded=0;" edge="1" parent="1" source="pkGze3YQsq-xrmIJsWhv-30" target="GAUOLHCDLPHEOuQpr5a8-90">
          <mxGeometry width="100" relative="1" as="geometry">
            <mxPoint x="240" y="475" as="sourcePoint" />
            <mxPoint x="500" y="475" as="targetPoint" />
          </mxGeometry>
        </mxCell>
        <mxCell id="GAUOLHCDLPHEOuQpr5a8-90" value="" style="shape=sumEllipse;perimeter=ellipsePerimeter;whiteSpace=wrap;html=1;backgroundOutline=1;fillColor=#dae8fc;strokeColor=#6c8ebf;" vertex="1" parent="1">
          <mxGeometry x="259.99999999999994" y="435" width="70" height="70" as="geometry" />
        </mxCell>
        <mxCell id="GAUOLHCDLPHEOuQpr5a8-96" value="SP2_SW1_EAST" style="text;html=1;align=center;verticalAlign=middle;whiteSpace=wrap;rounded=0;fontStyle=0" vertex="1" parent="1">
          <mxGeometry x="170" y="960" width="60" height="30" as="geometry" />
        </mxCell>
        <mxCell id="GAUOLHCDLPHEOuQpr5a8-97" value="SP4_SW1_WEST" style="text;html=1;align=center;verticalAlign=middle;whiteSpace=wrap;rounded=0;fontStyle=1" vertex="1" parent="1">
          <mxGeometry x="-23.33" y="970" width="60" height="30" as="geometry" />
        </mxCell>
        <mxCell id="GAUOLHCDLPHEOuQpr5a8-99" value="SP3_SW1_NORTH" style="text;html=1;align=center;verticalAlign=middle;whiteSpace=wrap;rounded=0;fontStyle=1" vertex="1" parent="1">
          <mxGeometry x="160" y="890" width="60" height="30" as="geometry" />
        </mxCell>
        <mxCell id="GAUOLHCDLPHEOuQpr5a8-100" value="SP1_SW1_SOUTH" style="text;html=1;align=center;verticalAlign=middle;whiteSpace=wrap;rounded=0;fontStyle=1" vertex="1" parent="1">
          <mxGeometry x="-50" y="1140" width="60" height="30" as="geometry" />
        </mxCell>
        <mxCell id="GAUOLHCDLPHEOuQpr5a8-101" value="SP5_SW2_SOUTH" style="text;html=1;align=center;verticalAlign=middle;whiteSpace=wrap;rounded=0;fontStyle=1" vertex="1" parent="1">
          <mxGeometry x="80" y="590" width="60" height="30" as="geometry" />
        </mxCell>
        <mxCell id="GAUOLHCDLPHEOuQpr5a8-102" value="SP8_SW2_WEST" style="text;html=1;align=center;verticalAlign=middle;whiteSpace=wrap;rounded=0;fontStyle=1" vertex="1" parent="1">
          <mxGeometry x="70" y="400" width="60" height="30" as="geometry" />
        </mxCell>
        <mxCell id="GAUOLHCDLPHEOuQpr5a8-103" value="SP6_SW2_EAST" style="text;html=1;align=center;verticalAlign=middle;whiteSpace=wrap;rounded=0;fontStyle=1" vertex="1" parent="1">
          <mxGeometry x="280" y="400" width="60" height="30" as="geometry" />
        </mxCell>
        <mxCell id="GAUOLHCDLPHEOuQpr5a8-104" value="SP7_SW2_NORTH" style="text;html=1;align=center;verticalAlign=middle;whiteSpace=wrap;rounded=0;fontStyle=1" vertex="1" parent="1">
          <mxGeometry x="265" y="320" width="60" height="30" as="geometry" />
        </mxCell>
        <mxCell id="GAUOLHCDLPHEOuQpr5a8-106" value="" style="shape=sumEllipse;perimeter=ellipsePerimeter;whiteSpace=wrap;html=1;backgroundOutline=1;fillColor=#dae8fc;strokeColor=#6c8ebf;" vertex="1" parent="1">
          <mxGeometry x="281.67" y="15" width="70" height="70" as="geometry" />
        </mxCell>
        <mxCell id="GAUOLHCDLPHEOuQpr5a8-110" value="" style="shape=link;html=1;rounded=0;" edge="1" parent="1" source="GAUOLHCDLPHEOuQpr5a8-222" target="GAUOLHCDLPHEOuQpr5a8-107">
          <mxGeometry width="100" relative="1" as="geometry">
            <mxPoint x="103" y="-50" as="sourcePoint" />
            <mxPoint x="290" y="-50" as="targetPoint" />
          </mxGeometry>
        </mxCell>
        <mxCell id="GAUOLHCDLPHEOuQpr5a8-107" value="" style="shape=sumEllipse;perimeter=ellipsePerimeter;whiteSpace=wrap;html=1;backgroundOutline=1;fillColor=#dae8fc;strokeColor=#6c8ebf;" vertex="1" parent="1">
          <mxGeometry x="200" y="-85" width="70" height="70" as="geometry" />
        </mxCell>
        <mxCell id="GAUOLHCDLPHEOuQpr5a8-111" value="" style="shape=link;html=1;rounded=0;" edge="1" parent="1" target="GAUOLHCDLPHEOuQpr5a8-109">
          <mxGeometry width="100" relative="1" as="geometry">
            <mxPoint x="370" y="-50" as="sourcePoint" />
            <mxPoint x="620" y="-50" as="targetPoint" />
          </mxGeometry>
        </mxCell>
        <mxCell id="GAUOLHCDLPHEOuQpr5a8-109" value="" style="shape=sumEllipse;perimeter=ellipsePerimeter;whiteSpace=wrap;html=1;backgroundOutline=1;fillColor=#dae8fc;strokeColor=#6c8ebf;" vertex="1" parent="1">
          <mxGeometry x="389.99999999999994" y="-85" width="70" height="70" as="geometry" />
        </mxCell>
        <mxCell id="GAUOLHCDLPHEOuQpr5a8-112" value="SP9_SW3_SOUTH" style="text;html=1;align=center;verticalAlign=middle;whiteSpace=wrap;rounded=0;fontStyle=1" vertex="1" parent="1">
          <mxGeometry x="205" y="70" width="60" height="30" as="geometry" />
        </mxCell>
        <mxCell id="GAUOLHCDLPHEOuQpr5a8-113" value="SP11_SW3_WEST" style="text;html=1;align=center;verticalAlign=middle;whiteSpace=wrap;rounded=0;fontStyle=1" vertex="1" parent="1">
          <mxGeometry x="195" y="-120" width="60" height="30" as="geometry" />
        </mxCell>
        <mxCell id="GAUOLHCDLPHEOuQpr5a8-114" value="SP10_SW3_EAST" style="text;html=1;align=center;verticalAlign=middle;whiteSpace=wrap;rounded=0;fontStyle=1" vertex="1" parent="1">
          <mxGeometry x="405" y="-120" width="60" height="30" as="geometry" />
        </mxCell>
        <mxCell id="GAUOLHCDLPHEOuQpr5a8-116" value="" style="shape=sumEllipse;perimeter=ellipsePerimeter;whiteSpace=wrap;html=1;backgroundOutline=1;fillColor=#dae8fc;strokeColor=#6c8ebf;" vertex="1" parent="1">
          <mxGeometry x="660" y="1000" width="70" height="70" as="geometry" />
        </mxCell>
        <mxCell id="GAUOLHCDLPHEOuQpr5a8-118" value="SP14_SW4_SOUTH" style="text;html=1;align=center;verticalAlign=middle;whiteSpace=wrap;rounded=0;fontStyle=1" vertex="1" parent="1">
          <mxGeometry x="880" y="880" width="60" height="30" as="geometry" />
        </mxCell>
        <mxCell id="GAUOLHCDLPHEOuQpr5a8-119" value="SP12_SW4_WEST" style="text;html=1;align=center;verticalAlign=middle;whiteSpace=wrap;rounded=0;" vertex="1" parent="1">
          <mxGeometry x="655" y="970" width="60" height="30" as="geometry" />
        </mxCell>
        <mxCell id="GAUOLHCDLPHEOuQpr5a8-120" value="SP13_SW4_EAST" style="text;html=1;align=center;verticalAlign=middle;whiteSpace=wrap;rounded=0;fontStyle=1" vertex="1" parent="1">
          <mxGeometry x="865" y="970" width="60" height="30" as="geometry" />
        </mxCell>
        <mxCell id="GAUOLHCDLPHEOuQpr5a8-125" value="SP15_SW5_SOUTH" style="text;html=1;align=center;verticalAlign=middle;whiteSpace=wrap;rounded=0;fontStyle=1" vertex="1" parent="1">
          <mxGeometry x="785" y="600" width="60" height="30" as="geometry" />
        </mxCell>
        <mxCell id="GAUOLHCDLPHEOuQpr5a8-126" value="SP18_SW5_WEST" style="text;html=1;align=center;verticalAlign=middle;whiteSpace=wrap;rounded=0;fontStyle=1" vertex="1" parent="1">
          <mxGeometry x="775" y="410" width="60" height="30" as="geometry" />
        </mxCell>
        <mxCell id="GAUOLHCDLPHEOuQpr5a8-127" value="SP16_SW5_EAST" style="text;html=1;align=center;verticalAlign=middle;whiteSpace=wrap;rounded=0;fontStyle=1" vertex="1" parent="1">
          <mxGeometry x="985" y="410" width="60" height="30" as="geometry" />
        </mxCell>
        <mxCell id="GAUOLHCDLPHEOuQpr5a8-128" value="SP17_SW5_NORTH" style="text;html=1;align=center;verticalAlign=middle;whiteSpace=wrap;rounded=0;fontStyle=1" vertex="1" parent="1">
          <mxGeometry x="990" y="330" width="60" height="30" as="geometry" />
        </mxCell>
        <mxCell id="GAUOLHCDLPHEOuQpr5a8-129" value="" style="shape=link;html=1;rounded=0;" edge="1" parent="1" source="pkGze3YQsq-xrmIJsWhv-38" target="GAUOLHCDLPHEOuQpr5a8-117">
          <mxGeometry width="100" relative="1" as="geometry">
            <mxPoint x="830" y="1035" as="sourcePoint" />
            <mxPoint x="1050" y="1035" as="targetPoint" />
          </mxGeometry>
        </mxCell>
        <mxCell id="GAUOLHCDLPHEOuQpr5a8-117" value="" style="shape=sumEllipse;perimeter=ellipsePerimeter;whiteSpace=wrap;html=1;backgroundOutline=1;fillColor=#dae8fc;strokeColor=#6c8ebf;" vertex="1" parent="1">
          <mxGeometry x="860" y="1000" width="70" height="70" as="geometry" />
        </mxCell>
        <mxCell id="GAUOLHCDLPHEOuQpr5a8-130" value="" style="shape=link;html=1;rounded=0;" edge="1" parent="1" source="pkGze3YQsq-xrmIJsWhv-36" target="GAUOLHCDLPHEOuQpr5a8-124">
          <mxGeometry width="100" relative="1" as="geometry">
            <mxPoint x="950" y="480" as="sourcePoint" />
            <mxPoint x="1177" y="480" as="targetPoint" />
          </mxGeometry>
        </mxCell>
        <mxCell id="GAUOLHCDLPHEOuQpr5a8-124" value="" style="shape=sumEllipse;perimeter=ellipsePerimeter;whiteSpace=wrap;html=1;backgroundOutline=1;fillColor=#dae8fc;strokeColor=#6c8ebf;" vertex="1" parent="1">
          <mxGeometry x="970" y="440" width="70" height="70" as="geometry" />
        </mxCell>
        <mxCell id="GAUOLHCDLPHEOuQpr5a8-131" value="" style="shape=link;html=1;rounded=0;" edge="1" parent="1" source="GAUOLHCDLPHEOuQpr5a8-212" target="GAUOLHCDLPHEOuQpr5a8-122">
          <mxGeometry width="100" relative="1" as="geometry">
            <mxPoint x="720" y="470" as="sourcePoint" />
            <mxPoint x="870" y="479" as="targetPoint" />
          </mxGeometry>
        </mxCell>
        <mxCell id="GAUOLHCDLPHEOuQpr5a8-122" value="" style="shape=sumEllipse;perimeter=ellipsePerimeter;whiteSpace=wrap;html=1;backgroundOutline=1;fillColor=#dae8fc;strokeColor=#6c8ebf;" vertex="1" parent="1">
          <mxGeometry x="780" y="435" width="70" height="70" as="geometry" />
        </mxCell>
        <mxCell id="GAUOLHCDLPHEOuQpr5a8-132" value="" style="shape=link;html=1;rounded=0;" edge="1" parent="1" source="pkGze3YQsq-xrmIJsWhv-38" target="GAUOLHCDLPHEOuQpr5a8-115">
          <mxGeometry width="100" relative="1" as="geometry">
            <mxPoint x="801" y="995" as="sourcePoint" />
            <mxPoint x="1019" y="210" as="targetPoint" />
            <Array as="points" />
          </mxGeometry>
        </mxCell>
        <mxCell id="GAUOLHCDLPHEOuQpr5a8-115" value="" style="shape=sumEllipse;perimeter=ellipsePerimeter;whiteSpace=wrap;html=1;backgroundOutline=1;fillColor=#dae8fc;strokeColor=#6c8ebf;" vertex="1" parent="1">
          <mxGeometry x="790.0000000000001" y="890" width="70" height="70" as="geometry" />
        </mxCell>
        <mxCell id="GAUOLHCDLPHEOuQpr5a8-133" value="" style="shape=link;html=1;rounded=0;" edge="1" parent="1" source="GAUOLHCDLPHEOuQpr5a8-121" target="pkGze3YQsq-xrmIJsWhv-36">
          <mxGeometry width="100" relative="1" as="geometry">
            <mxPoint x="844" y="751" as="sourcePoint" />
            <mxPoint x="1029" y="70" as="targetPoint" />
            <Array as="points" />
          </mxGeometry>
        </mxCell>
        <mxCell id="GAUOLHCDLPHEOuQpr5a8-123" value="" style="shape=sumEllipse;perimeter=ellipsePerimeter;whiteSpace=wrap;html=1;backgroundOutline=1;fillColor=#dae8fc;strokeColor=#6c8ebf;" vertex="1" parent="1">
          <mxGeometry x="910" y="350" width="70" height="70" as="geometry" />
        </mxCell>
        <mxCell id="GAUOLHCDLPHEOuQpr5a8-134" value="" style="shape=link;html=1;rounded=0;" edge="1" parent="1" source="GAUOLHCDLPHEOuQpr5a8-245" target="GAUOLHCDLPHEOuQpr5a8-121">
          <mxGeometry width="100" relative="1" as="geometry">
            <mxPoint x="844" y="751" as="sourcePoint" />
            <mxPoint x="936" y="424" as="targetPoint" />
            <Array as="points" />
          </mxGeometry>
        </mxCell>
        <mxCell id="GAUOLHCDLPHEOuQpr5a8-121" value="" style="shape=sumEllipse;perimeter=ellipsePerimeter;whiteSpace=wrap;html=1;backgroundOutline=1;fillColor=#dae8fc;strokeColor=#6c8ebf;" vertex="1" parent="1">
          <mxGeometry x="860" y="540" width="70" height="70" as="geometry" />
        </mxCell>
        <mxCell id="GAUOLHCDLPHEOuQpr5a8-135" value="" style="shape=link;html=1;rounded=0;" edge="1" parent="1" source="pkGze3YQsq-xrmIJsWhv-36">
          <mxGeometry width="100" relative="1" as="geometry">
            <mxPoint x="770" y="360" as="sourcePoint" />
            <mxPoint x="930" y="420" as="targetPoint" />
          </mxGeometry>
        </mxCell>
        <mxCell id="GAUOLHCDLPHEOuQpr5a8-136" value="SP18_SW6_SOUTH" style="text;html=1;align=center;verticalAlign=middle;whiteSpace=wrap;rounded=0;fontStyle=1" vertex="1" parent="1">
          <mxGeometry x="931.67" y="70" width="60" height="30" as="geometry" />
        </mxCell>
        <mxCell id="GAUOLHCDLPHEOuQpr5a8-137" value="SP21_SW6_WEST" style="text;html=1;align=center;verticalAlign=middle;whiteSpace=wrap;rounded=0;fontStyle=1" vertex="1" parent="1">
          <mxGeometry x="921.67" y="-120" width="60" height="30" as="geometry" />
        </mxCell>
        <mxCell id="GAUOLHCDLPHEOuQpr5a8-138" value="SP19_SW6_EAST" style="text;html=1;align=center;verticalAlign=middle;whiteSpace=wrap;rounded=0;fontStyle=1" vertex="1" parent="1">
          <mxGeometry x="1150" y="-120" width="60" height="30" as="geometry" />
        </mxCell>
        <mxCell id="GAUOLHCDLPHEOuQpr5a8-139" value="SP20_SW6_NORTH" style="text;html=1;align=center;verticalAlign=middle;whiteSpace=wrap;rounded=0;fontStyle=1" vertex="1" parent="1">
          <mxGeometry x="1170" y="-190" width="60" height="30" as="geometry" />
        </mxCell>
        <mxCell id="GAUOLHCDLPHEOuQpr5a8-144" value="" style="shape=link;html=1;rounded=0;entryX=0;entryY=0.5;entryDx=0;entryDy=0;" edge="1" parent="1" source="GAUOLHCDLPHEOuQpr5a8-64" target="GAUOLHCDLPHEOuQpr5a8-141">
          <mxGeometry width="100" relative="1" as="geometry">
            <mxPoint x="753" y="-50" as="sourcePoint" />
            <mxPoint x="1020" y="-50" as="targetPoint" />
          </mxGeometry>
        </mxCell>
        <mxCell id="GAUOLHCDLPHEOuQpr5a8-141" value="" style="shape=sumEllipse;perimeter=ellipsePerimeter;whiteSpace=wrap;html=1;backgroundOutline=1;fillColor=#dae8fc;strokeColor=#6c8ebf;" vertex="1" parent="1">
          <mxGeometry x="926.67" y="-85" width="70" height="70" as="geometry" />
        </mxCell>
        <mxCell id="GAUOLHCDLPHEOuQpr5a8-145" value="" style="shape=link;html=1;rounded=0;exitX=1;exitY=0.5;exitDx=0;exitDy=0;" edge="1" parent="1" source="pkGze3YQsq-xrmIJsWhv-34" target="GAUOLHCDLPHEOuQpr5a8-140">
          <mxGeometry width="100" relative="1" as="geometry">
            <mxPoint x="1100" y="-50" as="sourcePoint" />
            <mxPoint x="1340" y="-50" as="targetPoint" />
          </mxGeometry>
        </mxCell>
        <mxCell id="GAUOLHCDLPHEOuQpr5a8-140" value="" style="shape=sumEllipse;perimeter=ellipsePerimeter;whiteSpace=wrap;html=1;backgroundOutline=1;fillColor=#dae8fc;strokeColor=#6c8ebf;" vertex="1" parent="1">
          <mxGeometry x="1126.67" y="-85" width="70" height="70" as="geometry" />
        </mxCell>
        <mxCell id="GAUOLHCDLPHEOuQpr5a8-146" value="" style="shape=link;html=1;rounded=0;" edge="1" parent="1" source="GAUOLHCDLPHEOuQpr5a8-79" target="GAUOLHCDLPHEOuQpr5a8-143">
          <mxGeometry width="100" relative="1" as="geometry">
            <mxPoint x="954" y="356" as="sourcePoint" />
            <mxPoint x="1029" y="70" as="targetPoint" />
            <Array as="points" />
          </mxGeometry>
        </mxCell>
        <mxCell id="GAUOLHCDLPHEOuQpr5a8-143" value="" style="shape=sumEllipse;perimeter=ellipsePerimeter;whiteSpace=wrap;html=1;backgroundOutline=1;fillColor=#dae8fc;strokeColor=#6c8ebf;" vertex="1" parent="1">
          <mxGeometry x="1000" y="10" width="70" height="70" as="geometry" />
        </mxCell>
        <mxCell id="GAUOLHCDLPHEOuQpr5a8-147" value="" style="shape=link;html=1;rounded=0;exitX=0.75;exitY=0;exitDx=0;exitDy=0;" edge="1" parent="1" source="pkGze3YQsq-xrmIJsWhv-34" target="GAUOLHCDLPHEOuQpr5a8-142">
          <mxGeometry width="100" relative="1" as="geometry">
            <mxPoint x="1080" y="-90" as="sourcePoint" />
            <mxPoint x="1473" y="-280" as="targetPoint" />
            <Array as="points" />
          </mxGeometry>
        </mxCell>
        <mxCell id="GAUOLHCDLPHEOuQpr5a8-142" value="" style="shape=sumEllipse;perimeter=ellipsePerimeter;whiteSpace=wrap;html=1;backgroundOutline=1;fillColor=#dae8fc;strokeColor=#6c8ebf;" vertex="1" parent="1">
          <mxGeometry x="1070" y="-180" width="70" height="70" as="geometry" />
        </mxCell>
        <mxCell id="GAUOLHCDLPHEOuQpr5a8-148" value="" style="shape=link;html=1;rounded=0;" edge="1" parent="1" source="GAUOLHCDLPHEOuQpr5a8-123" target="GAUOLHCDLPHEOuQpr5a8-79">
          <mxGeometry width="100" relative="1" as="geometry">
            <mxPoint x="954" y="356" as="sourcePoint" />
            <mxPoint x="1006" y="159" as="targetPoint" />
            <Array as="points" />
          </mxGeometry>
        </mxCell>
        <mxCell id="GAUOLHCDLPHEOuQpr5a8-79" value="&lt;b&gt;&lt;font style=&quot;font-size: 15px;&quot;&gt;L15_1_SW5_SW6&lt;/font&gt;&lt;/b&gt;" style="text;html=1;align=center;verticalAlign=middle;whiteSpace=wrap;rounded=0;" vertex="1" parent="1">
          <mxGeometry x="895" y="270" width="150" height="30" as="geometry" />
        </mxCell>
        <mxCell id="GAUOLHCDLPHEOuQpr5a8-149" value="" style="shape=link;html=1;rounded=0;entryX=0.5;entryY=1;entryDx=0;entryDy=0;exitX=0.714;exitY=-0.029;exitDx=0;exitDy=0;exitPerimeter=0;" edge="1" parent="1" source="GAUOLHCDLPHEOuQpr5a8-89" target="GAUOLHCDLPHEOuQpr5a8-78">
          <mxGeometry width="100" relative="1" as="geometry">
            <mxPoint x="215" y="340" as="sourcePoint" />
            <mxPoint x="310" y="70" as="targetPoint" />
          </mxGeometry>
        </mxCell>
        <mxCell id="GAUOLHCDLPHEOuQpr5a8-78" value="&lt;b&gt;&lt;font style=&quot;font-size: 15px;&quot;&gt;L13_1_SW2_SW3&lt;/font&gt;&lt;/b&gt;" style="text;html=1;align=center;verticalAlign=middle;whiteSpace=wrap;rounded=0;" vertex="1" parent="1">
          <mxGeometry x="170" y="270" width="150" height="30" as="geometry" />
        </mxCell>
        <mxCell id="GAUOLHCDLPHEOuQpr5a8-75" value="&lt;span&gt;&lt;font style=&quot;font-size: 15px;&quot;&gt;L12_1_SW1_SW2&lt;/font&gt;&lt;/span&gt;" style="text;html=1;align=center;verticalAlign=middle;whiteSpace=wrap;rounded=0;fontStyle=1" vertex="1" parent="1">
          <mxGeometry x="50" y="830" width="150" height="30" as="geometry" />
        </mxCell>
        <mxCell id="GAUOLHCDLPHEOuQpr5a8-151" value="" style="shape=link;html=1;rounded=0;entryX=0.5;entryY=1;entryDx=0;entryDy=0;" edge="1" parent="1" source="GAUOLHCDLPHEOuQpr5a8-115" target="GAUOLHCDLPHEOuQpr5a8-80">
          <mxGeometry width="100" relative="1" as="geometry">
            <mxPoint x="834" y="891" as="sourcePoint" />
            <mxPoint x="850.5000000000009" y="840" as="targetPoint" />
            <Array as="points" />
          </mxGeometry>
        </mxCell>
        <mxCell id="GAUOLHCDLPHEOuQpr5a8-80" value="&lt;b&gt;&lt;font style=&quot;font-size: 15px;&quot;&gt;L14_1_SW4_SW5&lt;/font&gt;&lt;/b&gt;" style="text;html=1;align=center;verticalAlign=middle;whiteSpace=wrap;rounded=0;" vertex="1" parent="1">
          <mxGeometry x="771.67" y="830" width="150" height="30" as="geometry" />
        </mxCell>
        <mxCell id="GAUOLHCDLPHEOuQpr5a8-152" value="" style="shape=link;html=1;rounded=0;" edge="1" parent="1" source="pkGze3YQsq-xrmIJsWhv-48" target="GAUOLHCDLPHEOuQpr5a8-63">
          <mxGeometry width="100" relative="1" as="geometry">
            <mxPoint x="-657" y="-50" as="sourcePoint" />
            <mxPoint x="-390" y="-50" as="targetPoint" />
          </mxGeometry>
        </mxCell>
        <mxCell id="GAUOLHCDLPHEOuQpr5a8-63" value="&lt;b&gt;&lt;font style=&quot;font-size: 15px;&quot;&gt;L4_2&lt;/font&gt;&lt;/b&gt;" style="text;html=1;align=center;verticalAlign=middle;whiteSpace=wrap;rounded=0;" vertex="1" parent="1">
          <mxGeometry x="-550" y="-65" width="60" height="30" as="geometry" />
        </mxCell>
        <mxCell id="GAUOLHCDLPHEOuQpr5a8-153" value="" style="shape=link;html=1;rounded=0;entryX=0.015;entryY=0.511;entryDx=0;entryDy=0;entryPerimeter=0;exitX=0.974;exitY=0.506;exitDx=0;exitDy=0;exitPerimeter=0;" edge="1" parent="1" source="pkGze3YQsq-xrmIJsWhv-54" target="GAUOLHCDLPHEOuQpr5a8-67">
          <mxGeometry width="100" relative="1" as="geometry">
            <mxPoint x="-823" y="475" as="sourcePoint" />
            <mxPoint x="-551" y="476" as="targetPoint" />
          </mxGeometry>
        </mxCell>
        <mxCell id="GAUOLHCDLPHEOuQpr5a8-67" value="&lt;b&gt;&lt;font style=&quot;font-size: 15px;&quot;&gt;L3_2&lt;/font&gt;&lt;/b&gt;" style="text;html=1;align=center;verticalAlign=middle;whiteSpace=wrap;rounded=0;" vertex="1" parent="1">
          <mxGeometry x="-699.9999999999999" y="460" width="60" height="30" as="geometry" />
        </mxCell>
        <mxCell id="GAUOLHCDLPHEOuQpr5a8-155" value="" style="shape=link;html=1;rounded=0;entryX=0;entryY=0.478;entryDx=0;entryDy=0;entryPerimeter=0;" edge="1" parent="1" source="GAUOLHCDLPHEOuQpr5a8-15" target="GAUOLHCDLPHEOuQpr5a8-70">
          <mxGeometry width="100" relative="1" as="geometry">
            <mxPoint x="-940" y="1031" as="sourcePoint" />
            <mxPoint x="-693" y="1033" as="targetPoint" />
          </mxGeometry>
        </mxCell>
        <mxCell id="GAUOLHCDLPHEOuQpr5a8-70" value="&lt;b&gt;&lt;font style=&quot;font-size: 15px;&quot;&gt;L2_2&lt;/font&gt;&lt;/b&gt;" style="text;html=1;align=center;verticalAlign=middle;whiteSpace=wrap;rounded=0;" vertex="1" parent="1">
          <mxGeometry x="-829.9999999999999" y="1020" width="60" height="30" as="geometry" />
        </mxCell>
        <mxCell id="GAUOLHCDLPHEOuQpr5a8-156" value="" style="shape=link;html=1;rounded=0;" edge="1" parent="1" target="GAUOLHCDLPHEOuQpr5a8-73">
          <mxGeometry width="100" relative="1" as="geometry">
            <mxPoint x="-1190" y="1255" as="sourcePoint" />
            <mxPoint x="-830" y="1255" as="targetPoint" />
          </mxGeometry>
        </mxCell>
        <mxCell id="GAUOLHCDLPHEOuQpr5a8-73" value="&lt;b&gt;&lt;font style=&quot;font-size: 15px;&quot;&gt;L1_1&lt;/font&gt;&lt;/b&gt;" style="text;html=1;align=center;verticalAlign=middle;whiteSpace=wrap;rounded=0;" vertex="1" parent="1">
          <mxGeometry x="-1023.3299999999999" y="1240" width="60" height="30" as="geometry" />
        </mxCell>
        <mxCell id="GAUOLHCDLPHEOuQpr5a8-157" value="" style="shape=link;html=1;rounded=0;entryX=0;entryY=0.5;entryDx=0;entryDy=0;" edge="1" parent="1" source="GAUOLHCDLPHEOuQpr5a8-1" target="GAUOLHCDLPHEOuQpr5a8-64">
          <mxGeometry width="100" relative="1" as="geometry">
            <mxPoint x="753" y="-50" as="sourcePoint" />
            <mxPoint x="927" y="-50" as="targetPoint" />
          </mxGeometry>
        </mxCell>
        <mxCell id="GAUOLHCDLPHEOuQpr5a8-64" value="&lt;span style=&quot;font-size: 15px;&quot;&gt;&lt;b&gt;L4_6&lt;/b&gt;&lt;/span&gt;" style="text;html=1;align=center;verticalAlign=middle;whiteSpace=wrap;rounded=0;" vertex="1" parent="1">
          <mxGeometry x="790.0000000000001" y="-65" width="60" height="30" as="geometry" />
        </mxCell>
        <mxCell id="GAUOLHCDLPHEOuQpr5a8-158" value="" style="shape=link;html=1;rounded=0;" edge="1" parent="1" source="GAUOLHCDLPHEOuQpr5a8-9" target="GAUOLHCDLPHEOuQpr5a8-212">
          <mxGeometry width="100" relative="1" as="geometry">
            <mxPoint x="633" y="475" as="sourcePoint" />
            <mxPoint x="660" y="471.216199781084" as="targetPoint" />
          </mxGeometry>
        </mxCell>
        <mxCell id="GAUOLHCDLPHEOuQpr5a8-159" value="" style="shape=link;html=1;rounded=0;exitX=0.986;exitY=0.508;exitDx=0;exitDy=0;exitPerimeter=0;" edge="1" parent="1" source="GAUOLHCDLPHEOuQpr5a8-27" target="GAUOLHCDLPHEOuQpr5a8-71">
          <mxGeometry width="100" relative="1" as="geometry">
            <mxPoint x="521" y="1036" as="sourcePoint" />
            <mxPoint x="750" y="1035" as="targetPoint" />
          </mxGeometry>
        </mxCell>
        <mxCell id="GAUOLHCDLPHEOuQpr5a8-71" value="&lt;b&gt;&lt;font style=&quot;font-size: 15px;&quot;&gt;L2_6&lt;/font&gt;&lt;/b&gt;" style="text;html=1;align=center;verticalAlign=middle;whiteSpace=wrap;rounded=0;" vertex="1" parent="1">
          <mxGeometry x="563.3300000000002" y="1020" width="60" height="30" as="geometry" />
        </mxCell>
        <mxCell id="GAUOLHCDLPHEOuQpr5a8-161" value="" style="shape=link;html=1;rounded=0;exitX=0.957;exitY=0.519;exitDx=0;exitDy=0;exitPerimeter=0;" edge="1" parent="1" source="GAUOLHCDLPHEOuQpr5a8-41" target="GAUOLHCDLPHEOuQpr5a8-74">
          <mxGeometry width="100" relative="1" as="geometry">
            <mxPoint x="1601" y="-278" as="sourcePoint" />
            <mxPoint x="1863" y="-280" as="targetPoint" />
          </mxGeometry>
        </mxCell>
        <mxCell id="GAUOLHCDLPHEOuQpr5a8-74" value="&lt;b&gt;&lt;font style=&quot;font-size: 15px;&quot;&gt;L5_2&lt;/font&gt;&lt;/b&gt;" style="text;html=1;align=center;verticalAlign=middle;whiteSpace=wrap;rounded=0;" vertex="1" parent="1">
          <mxGeometry x="1690" y="-295" width="60" height="30" as="geometry" />
        </mxCell>
        <mxCell id="GAUOLHCDLPHEOuQpr5a8-162" value="" style="shape=link;html=1;rounded=0;entryX=0;entryY=0.5;entryDx=0;entryDy=0;entryPerimeter=0;" edge="1" parent="1" target="GAUOLHCDLPHEOuQpr5a8-66">
          <mxGeometry width="100" relative="1" as="geometry">
            <mxPoint x="1473.33" y="-50.620000000000005" as="sourcePoint" />
            <mxPoint x="1730" y="-50" as="targetPoint" />
          </mxGeometry>
        </mxCell>
        <mxCell id="GAUOLHCDLPHEOuQpr5a8-66" value="&lt;b&gt;&lt;font style=&quot;font-size: 15px;&quot;&gt;L4_8&lt;/font&gt;&lt;/b&gt;" style="text;html=1;align=center;verticalAlign=middle;whiteSpace=wrap;rounded=0;" vertex="1" parent="1">
          <mxGeometry x="1586.67" y="-65" width="60" height="30" as="geometry" />
        </mxCell>
        <mxCell id="GAUOLHCDLPHEOuQpr5a8-163" value="" style="shape=link;html=1;rounded=0;" edge="1" parent="1" source="GAUOLHCDLPHEOuQpr5a8-11" target="GAUOLHCDLPHEOuQpr5a8-69">
          <mxGeometry width="100" relative="1" as="geometry">
            <mxPoint x="1310" y="480" as="sourcePoint" />
            <mxPoint x="1567" y="480" as="targetPoint" />
          </mxGeometry>
        </mxCell>
        <mxCell id="GAUOLHCDLPHEOuQpr5a8-69" value="&lt;b&gt;&lt;font style=&quot;font-size: 15px;&quot;&gt;L3_8&lt;/font&gt;&lt;/b&gt;" style="text;html=1;align=center;verticalAlign=middle;whiteSpace=wrap;rounded=0;" vertex="1" parent="1">
          <mxGeometry x="1400.0000000000002" y="465" width="60" height="30" as="geometry" />
        </mxCell>
        <mxCell id="GAUOLHCDLPHEOuQpr5a8-165" value="" style="shape=link;html=1;rounded=0;exitX=1.016;exitY=0.528;exitDx=0;exitDy=0;exitPerimeter=0;entryX=0.009;entryY=0.508;entryDx=0;entryDy=0;entryPerimeter=0;" edge="1" parent="1" source="GAUOLHCDLPHEOuQpr5a8-28" target="GAUOLHCDLPHEOuQpr5a8-72">
          <mxGeometry width="100" relative="1" as="geometry">
            <mxPoint x="1185" y="1037" as="sourcePoint" />
            <mxPoint x="1425" y="1036" as="targetPoint" />
          </mxGeometry>
        </mxCell>
        <mxCell id="GAUOLHCDLPHEOuQpr5a8-72" value="&lt;b&gt;&lt;font style=&quot;font-size: 15px;&quot;&gt;L2_8&lt;/font&gt;&lt;/b&gt;" style="text;html=1;align=center;verticalAlign=middle;whiteSpace=wrap;rounded=0;" vertex="1" parent="1">
          <mxGeometry x="1280.0000000000002" y="1020" width="60" height="30" as="geometry" />
        </mxCell>
        <mxCell id="GAUOLHCDLPHEOuQpr5a8-168" value="" style="shape=link;html=1;rounded=0;entryX=0.5;entryY=1;entryDx=0;entryDy=0;exitX=0.5;exitY=0;exitDx=0;exitDy=0;" edge="1" parent="1" source="GAUOLHCDLPHEOuQpr5a8-84" target="GAUOLHCDLPHEOuQpr5a8-75">
          <mxGeometry width="100" relative="1" as="geometry">
            <mxPoint x="-140" y="880" as="sourcePoint" />
            <mxPoint x="-40" y="880" as="targetPoint" />
          </mxGeometry>
        </mxCell>
        <mxCell id="GAUOLHCDLPHEOuQpr5a8-169" value="" style="shape=link;html=1;rounded=0;exitX=0.5;exitY=0;exitDx=0;exitDy=0;" edge="1" parent="1" source="pkGze3YQsq-xrmIJsWhv-32" target="GAUOLHCDLPHEOuQpr5a8-84">
          <mxGeometry width="100" relative="1" as="geometry">
            <mxPoint x="-160" y="920" as="sourcePoint" />
            <mxPoint x="-60" y="920" as="targetPoint" />
          </mxGeometry>
        </mxCell>
        <mxCell id="GAUOLHCDLPHEOuQpr5a8-175" value="&lt;h1 style=&quot;margin-top: 0px; font-size: 30px;&quot;&gt;&lt;u&gt;&amp;nbsp; &amp;nbsp; &amp;nbsp; &amp;nbsp; &amp;nbsp; &amp;nbsp; &amp;nbsp; &amp;nbsp; &amp;nbsp; &amp;nbsp; &amp;nbsp; &amp;nbsp; &amp;nbsp; &amp;nbsp; &amp;nbsp; Legend&amp;nbsp; &amp;nbsp; &amp;nbsp; &amp;nbsp; &amp;nbsp; &amp;nbsp; &amp;nbsp; &amp;nbsp; &amp;nbsp; &amp;nbsp; &amp;nbsp; &amp;nbsp; &amp;nbsp; &amp;nbsp; &amp;nbsp; &amp;nbsp; &lt;span style=&quot;white-space: pre;&quot;&gt;&#x9;&lt;/span&gt;&lt;span style=&quot;white-space: pre;&quot;&gt;&#x9;&lt;/span&gt;&lt;/u&gt;&lt;/h1&gt;&lt;p style=&quot;font-size: 25px;&quot;&gt;&lt;font style=&quot;font-size: 25px;&quot;&gt;&lt;span style=&quot;white-space: pre;&quot;&gt;&#x9;&lt;/span&gt;&lt;span style=&quot;white-space: pre;&quot;&gt;&#x9;&lt;/span&gt;&lt;span style=&quot;white-space: pre;&quot;&gt;&#x9;&lt;span style=&quot;white-space: pre;&quot;&gt;&#x9;&lt;/span&gt;&lt;span style=&quot;white-space: pre;&quot;&gt;&#x9;&lt;/span&gt;&lt;span style=&quot;white-space: pre;&quot;&gt;&#x9;&lt;/span&gt;&lt;/span&gt;L &lt;span style=&quot;white-space: pre;&quot;&gt;&#x9;&lt;/span&gt;&lt;span style=&quot;white-space: pre;&quot;&gt;&#x9;&lt;/span&gt;- Line&lt;/font&gt;&lt;/p&gt;&lt;p style=&quot;font-size: 25px;&quot;&gt;&lt;font style=&quot;font-size: 25px;&quot;&gt;&lt;br&gt;&lt;/font&gt;&lt;/p&gt;&lt;p style=&quot;font-size: 25px;&quot;&gt;&lt;font style=&quot;font-size: 25px;&quot;&gt;&lt;span style=&quot;white-space: pre;&quot;&gt;&#x9;&lt;/span&gt;&lt;span style=&quot;white-space: pre;&quot;&gt;&#x9;&lt;/span&gt;&lt;span style=&quot;white-space: pre;&quot;&gt;&#x9;&lt;span style=&quot;white-space: pre;&quot;&gt;&#x9;&lt;/span&gt;&lt;span style=&quot;white-space: pre;&quot;&gt;&#x9;&lt;/span&gt;&lt;span style=&quot;white-space: pre;&quot;&gt;&#x9;&lt;/span&gt;&lt;/span&gt;SW &lt;span style=&quot;white-space: pre;&quot;&gt;&#x9;&lt;/span&gt;&lt;span style=&quot;white-space: pre;&quot;&gt;&#x9;&lt;/span&gt;- Switch&lt;/font&gt;&lt;/p&gt;&lt;p style=&quot;font-size: 25px;&quot;&gt;&lt;font style=&quot;font-size: 25px;&quot;&gt;&lt;br&gt;&lt;/font&gt;&lt;/p&gt;&lt;p style=&quot;font-size: 25px;&quot;&gt;&lt;font style=&quot;font-size: 25px;&quot;&gt;&lt;span style=&quot;white-space: pre;&quot;&gt;&#x9;&lt;/span&gt;&lt;span style=&quot;white-space: pre;&quot;&gt;&#x9;&lt;/span&gt;&lt;span style=&quot;white-space: pre;&quot;&gt;&#x9;&lt;span style=&quot;white-space: pre;&quot;&gt;&#x9;&lt;/span&gt;&lt;span style=&quot;white-space: pre;&quot;&gt;&#x9;&lt;/span&gt;&lt;span style=&quot;white-space: pre;&quot;&gt;&#x9;&lt;/span&gt;&lt;/span&gt;SP &lt;span style=&quot;white-space: pre;&quot;&gt;&#x9;&lt;/span&gt;&lt;span style=&quot;white-space: pre;&quot;&gt;&#x9;&lt;/span&gt;- Semaphore&lt;/font&gt;&lt;/p&gt;&lt;p style=&quot;font-size: 25px;&quot;&gt;&lt;font style=&quot;font-size: 25px;&quot;&gt;&lt;br&gt;&lt;/font&gt;&lt;/p&gt;&lt;p style=&quot;font-size: 25px;&quot;&gt;&lt;font style=&quot;font-size: 25px;&quot;&gt;&lt;span style=&quot;white-space: pre;&quot;&gt;&#x9;&lt;/span&gt;&lt;span style=&quot;white-space: pre;&quot;&gt;&#x9;&lt;/span&gt;&lt;span style=&quot;white-space: pre;&quot;&gt;&#x9;&lt;span style=&quot;white-space: pre;&quot;&gt;&#x9;&lt;/span&gt;&lt;span style=&quot;white-space: pre;&quot;&gt;&#x9;&lt;/span&gt;&lt;span style=&quot;white-space: pre;&quot;&gt;&#x9;&lt;/span&gt;&lt;/span&gt;MS &lt;span style=&quot;white-space: pre;&quot;&gt;&#x9;&lt;/span&gt;&lt;span style=&quot;white-space: pre;&quot;&gt;&#x9;&lt;/span&gt;- Movement sensor&lt;/font&gt;&lt;/p&gt;" style="text;html=1;whiteSpace=wrap;overflow=hidden;rounded=0;" vertex="1" parent="1">
          <mxGeometry x="1500" y="1340" width="681.66" height="660" as="geometry" />
        </mxCell>
        <mxCell id="GAUOLHCDLPHEOuQpr5a8-176" value="" style="shape=link;html=1;rounded=0;" edge="1" parent="1">
          <mxGeometry width="100" relative="1" as="geometry">
            <mxPoint x="1681.6599999999999" y="1460" as="sourcePoint" />
            <mxPoint x="1781.6599999999999" y="1460" as="targetPoint" />
          </mxGeometry>
        </mxCell>
        <mxCell id="GAUOLHCDLPHEOuQpr5a8-177" value="" style="whiteSpace=wrap;html=1;aspect=fixed;fillColor=#f8cecc;strokeColor=#b85450;" vertex="1" parent="1">
          <mxGeometry x="1691.6599999999999" y="1530" width="80" height="80" as="geometry" />
        </mxCell>
        <mxCell id="GAUOLHCDLPHEOuQpr5a8-178" value="" style="shape=sumEllipse;perimeter=ellipsePerimeter;whiteSpace=wrap;html=1;backgroundOutline=1;" vertex="1" parent="1">
          <mxGeometry x="1696.6599999999999" y="1635" width="70" height="70" as="geometry" />
        </mxCell>
        <mxCell id="GAUOLHCDLPHEOuQpr5a8-179" value="" style="html=1;whiteSpace=wrap;aspect=fixed;shape=isoRectangle;fillColor=#ffe6cc;strokeColor=#d79b00;" vertex="1" parent="1">
          <mxGeometry x="1660" y="1750" width="133.33" height="80" as="geometry" />
        </mxCell>
        <mxCell id="GAUOLHCDLPHEOuQpr5a8-180" value="&lt;h1 style=&quot;margin-top: 0px; font-size: 30px;&quot;&gt;&lt;br&gt;&lt;/h1&gt;" style="text;html=1;whiteSpace=wrap;overflow=hidden;rounded=0;" vertex="1" parent="1">
          <mxGeometry x="-1200" y="1320" width="1630" height="660" as="geometry" />
        </mxCell>
        <mxCell id="GAUOLHCDLPHEOuQpr5a8-181" value="&lt;font style=&quot;font-size: 40px;&quot;&gt;&lt;b&gt;SCADA Model for railway segment&lt;/b&gt;&lt;/font&gt;" style="text;html=1;align=center;verticalAlign=middle;whiteSpace=wrap;rounded=0;" vertex="1" parent="1">
          <mxGeometry x="290" y="-710" width="710" height="250" as="geometry" />
        </mxCell>
        <mxCell id="GAUOLHCDLPHEOuQpr5a8-183" value="" style="shape=link;html=1;rounded=0;entryX=0.037;entryY=0.498;entryDx=0;entryDy=0;entryPerimeter=0;" edge="1" parent="1" source="GAUOLHCDLPHEOuQpr5a8-35" target="GAUOLHCDLPHEOuQpr5a8-182">
          <mxGeometry width="100" relative="1" as="geometry">
            <mxPoint x="-697" y="1255" as="sourcePoint" />
            <mxPoint x="-465" y="1255" as="targetPoint" />
          </mxGeometry>
        </mxCell>
        <mxCell id="GAUOLHCDLPHEOuQpr5a8-182" value="&lt;b&gt;&lt;font style=&quot;font-size: 15px;&quot;&gt;L1_2&lt;/font&gt;&lt;/b&gt;" style="text;html=1;align=center;verticalAlign=middle;whiteSpace=wrap;rounded=0;" vertex="1" parent="1">
          <mxGeometry x="-610" y="1240" width="60" height="30" as="geometry" />
        </mxCell>
        <mxCell id="GAUOLHCDLPHEOuQpr5a8-184" value="&lt;b&gt;&lt;font style=&quot;font-size: 15px;&quot;&gt;L1_3&lt;/font&gt;&lt;/b&gt;" style="text;html=1;align=center;verticalAlign=middle;whiteSpace=wrap;rounded=0;" vertex="1" parent="1">
          <mxGeometry x="-59.999999999999886" y="1240" width="60" height="30" as="geometry" />
        </mxCell>
        <mxCell id="GAUOLHCDLPHEOuQpr5a8-187" value="" style="shape=link;html=1;rounded=0;entryX=0;entryY=0.5;entryDx=0;entryDy=0;exitX=0.982;exitY=0.441;exitDx=0;exitDy=0;exitPerimeter=0;" edge="1" parent="1" source="GAUOLHCDLPHEOuQpr5a8-31" target="GAUOLHCDLPHEOuQpr5a8-184">
          <mxGeometry width="100" relative="1" as="geometry">
            <mxPoint x="-400" y="1200" as="sourcePoint" />
            <mxPoint x="-300" y="1200" as="targetPoint" />
          </mxGeometry>
        </mxCell>
        <mxCell id="GAUOLHCDLPHEOuQpr5a8-189" value="" style="shape=link;html=1;rounded=0;" edge="1" parent="1" target="GAUOLHCDLPHEOuQpr5a8-188">
          <mxGeometry width="100" relative="1" as="geometry">
            <mxPoint x="-1200" y="1030" as="sourcePoint" />
            <mxPoint x="-1073" y="1030" as="targetPoint" />
          </mxGeometry>
        </mxCell>
        <mxCell id="GAUOLHCDLPHEOuQpr5a8-188" value="&lt;b&gt;&lt;font style=&quot;font-size: 15px;&quot;&gt;L2_1&lt;/font&gt;&lt;/b&gt;" style="text;html=1;align=center;verticalAlign=middle;whiteSpace=wrap;rounded=0;" vertex="1" parent="1">
          <mxGeometry x="-1160" y="1015" width="60" height="30" as="geometry" />
        </mxCell>
        <mxCell id="GAUOLHCDLPHEOuQpr5a8-191" value="" style="shape=link;html=1;rounded=0;exitX=1.018;exitY=0.484;exitDx=0;exitDy=0;exitPerimeter=0;" edge="1" parent="1" source="GAUOLHCDLPHEOuQpr5a8-16" target="GAUOLHCDLPHEOuQpr5a8-190">
          <mxGeometry width="100" relative="1" as="geometry">
            <mxPoint x="-557" y="1034" as="sourcePoint" />
            <mxPoint x="-337" y="1035" as="targetPoint" />
          </mxGeometry>
        </mxCell>
        <mxCell id="GAUOLHCDLPHEOuQpr5a8-190" value="&lt;b&gt;&lt;font style=&quot;font-size: 15px;&quot;&gt;L2_3&lt;/font&gt;&lt;/b&gt;" style="text;html=1;align=center;verticalAlign=middle;whiteSpace=wrap;rounded=0;" vertex="1" parent="1">
          <mxGeometry x="-469.9899999999999" y="1020" width="60" height="30" as="geometry" />
        </mxCell>
        <mxCell id="GAUOLHCDLPHEOuQpr5a8-193" value="" style="shape=link;html=1;rounded=0;" edge="1" parent="1" source="GAUOLHCDLPHEOuQpr5a8-17" target="GAUOLHCDLPHEOuQpr5a8-192">
          <mxGeometry width="100" relative="1" as="geometry">
            <mxPoint x="-203" y="1035" as="sourcePoint" />
            <mxPoint x="-28" y="1035" as="targetPoint" />
          </mxGeometry>
        </mxCell>
        <mxCell id="GAUOLHCDLPHEOuQpr5a8-192" value="&lt;b&gt;&lt;font style=&quot;font-size: 15px;&quot;&gt;L2_4&lt;/font&gt;&lt;/b&gt;" style="text;html=1;align=center;verticalAlign=middle;whiteSpace=wrap;rounded=0;" vertex="1" parent="1">
          <mxGeometry x="-129.9999999999999" y="1020" width="60" height="30" as="geometry" />
        </mxCell>
        <mxCell id="GAUOLHCDLPHEOuQpr5a8-196" value="" style="shape=link;html=1;rounded=0;exitX=0.451;exitY=0.988;exitDx=0;exitDy=0;exitPerimeter=0;entryX=0.774;entryY=0.074;entryDx=0;entryDy=0;entryPerimeter=0;" edge="1" parent="1" source="pkGze3YQsq-xrmIJsWhv-32" target="GAUOLHCDLPHEOuQpr5a8-81">
          <mxGeometry width="100" relative="1" as="geometry">
            <mxPoint x="90" y="1090" as="sourcePoint" />
            <mxPoint x="190" y="1090" as="targetPoint" />
          </mxGeometry>
        </mxCell>
        <mxCell id="GAUOLHCDLPHEOuQpr5a8-198" value="" style="shape=link;html=1;rounded=0;entryX=0.085;entryY=0.488;entryDx=0;entryDy=0;entryPerimeter=0;" edge="1" parent="1" source="GAUOLHCDLPHEOuQpr5a8-85" target="GAUOLHCDLPHEOuQpr5a8-197">
          <mxGeometry width="100" relative="1" as="geometry">
            <mxPoint x="230" y="1035" as="sourcePoint" />
            <mxPoint x="401" y="1034" as="targetPoint" />
          </mxGeometry>
        </mxCell>
        <mxCell id="GAUOLHCDLPHEOuQpr5a8-197" value="&lt;b&gt;&lt;font style=&quot;font-size: 15px;&quot;&gt;L2_5&lt;/font&gt;&lt;/b&gt;" style="text;html=1;align=center;verticalAlign=middle;whiteSpace=wrap;rounded=0;" vertex="1" parent="1">
          <mxGeometry x="280.00000000000017" y="1020" width="60" height="30" as="geometry" />
        </mxCell>
        <mxCell id="GAUOLHCDLPHEOuQpr5a8-200" value="" style="shape=link;html=1;rounded=0;" edge="1" parent="1" source="GAUOLHCDLPHEOuQpr5a8-117" target="GAUOLHCDLPHEOuQpr5a8-199">
          <mxGeometry width="100" relative="1" as="geometry">
            <mxPoint x="930" y="1035" as="sourcePoint" />
            <mxPoint x="1050" y="1035" as="targetPoint" />
          </mxGeometry>
        </mxCell>
        <mxCell id="GAUOLHCDLPHEOuQpr5a8-199" value="&lt;b&gt;&lt;font style=&quot;font-size: 15px;&quot;&gt;L2_7&lt;/font&gt;&lt;/b&gt;" style="text;html=1;align=center;verticalAlign=middle;whiteSpace=wrap;rounded=0;" vertex="1" parent="1">
          <mxGeometry x="960.0000000000002" y="1020" width="60" height="30" as="geometry" />
        </mxCell>
        <mxCell id="GAUOLHCDLPHEOuQpr5a8-203" value="" style="shape=link;html=1;rounded=0;exitX=1.005;exitY=0.528;exitDx=0;exitDy=0;exitPerimeter=0;" edge="1" parent="1" source="GAUOLHCDLPHEOuQpr5a8-30" target="GAUOLHCDLPHEOuQpr5a8-202">
          <mxGeometry width="100" relative="1" as="geometry">
            <mxPoint x="1557" y="1037" as="sourcePoint" />
            <mxPoint x="2100" y="1037" as="targetPoint" />
          </mxGeometry>
        </mxCell>
        <mxCell id="GAUOLHCDLPHEOuQpr5a8-202" value="&lt;b&gt;&lt;font style=&quot;font-size: 15px;&quot;&gt;L2_9&lt;/font&gt;&lt;/b&gt;" style="text;html=1;align=center;verticalAlign=middle;whiteSpace=wrap;rounded=0;" vertex="1" parent="1">
          <mxGeometry x="1810.8300000000004" y="1020" width="60" height="30" as="geometry" />
        </mxCell>
        <mxCell id="GAUOLHCDLPHEOuQpr5a8-205" value="" style="shape=link;html=1;rounded=0;entryX=0.021;entryY=0.49;entryDx=0;entryDy=0;entryPerimeter=0;" edge="1" parent="1" target="GAUOLHCDLPHEOuQpr5a8-204">
          <mxGeometry width="100" relative="1" as="geometry">
            <mxPoint x="-1200" y="474" as="sourcePoint" />
            <mxPoint x="-951" y="474" as="targetPoint" />
          </mxGeometry>
        </mxCell>
        <mxCell id="GAUOLHCDLPHEOuQpr5a8-204" value="&lt;span style=&quot;font-size: 15px;&quot;&gt;&lt;b&gt;L3_1&lt;/b&gt;&lt;/span&gt;" style="text;html=1;align=center;verticalAlign=middle;whiteSpace=wrap;rounded=0;" vertex="1" parent="1">
          <mxGeometry x="-1110" y="460" width="60" height="30" as="geometry" />
        </mxCell>
        <mxCell id="GAUOLHCDLPHEOuQpr5a8-207" value="" style="shape=link;html=1;rounded=0;entryX=0.064;entryY=0.497;entryDx=0;entryDy=0;entryPerimeter=0;" edge="1" parent="1" source="pkGze3YQsq-xrmIJsWhv-55" target="GAUOLHCDLPHEOuQpr5a8-206">
          <mxGeometry width="100" relative="1" as="geometry">
            <mxPoint x="-420" y="475" as="sourcePoint" />
            <mxPoint x="-185" y="475" as="targetPoint" />
          </mxGeometry>
        </mxCell>
        <mxCell id="GAUOLHCDLPHEOuQpr5a8-206" value="&lt;b&gt;&lt;font style=&quot;font-size: 15px;&quot;&gt;L3_3&lt;/font&gt;&lt;/b&gt;" style="text;html=1;align=center;verticalAlign=middle;whiteSpace=wrap;rounded=0;" vertex="1" parent="1">
          <mxGeometry x="-336.6599999999999" y="460" width="60" height="30" as="geometry" />
        </mxCell>
        <mxCell id="GAUOLHCDLPHEOuQpr5a8-209" value="" style="shape=link;html=1;rounded=0;" edge="1" parent="1" source="pkGze3YQsq-xrmIJsWhv-56" target="GAUOLHCDLPHEOuQpr5a8-208">
          <mxGeometry width="100" relative="1" as="geometry">
            <mxPoint x="-60" y="475" as="sourcePoint" />
            <mxPoint x="72" y="475" as="targetPoint" />
          </mxGeometry>
        </mxCell>
        <mxCell id="GAUOLHCDLPHEOuQpr5a8-208" value="&lt;b&gt;&lt;font style=&quot;font-size: 15px;&quot;&gt;L3_4&lt;/font&gt;&lt;/b&gt;" style="text;html=1;align=center;verticalAlign=middle;whiteSpace=wrap;rounded=0;" vertex="1" parent="1">
          <mxGeometry x="-23.329999999999927" y="460" width="60" height="30" as="geometry" />
        </mxCell>
        <mxCell id="GAUOLHCDLPHEOuQpr5a8-211" value="" style="shape=link;html=1;rounded=0;" edge="1" parent="1" source="GAUOLHCDLPHEOuQpr5a8-90" target="GAUOLHCDLPHEOuQpr5a8-210">
          <mxGeometry width="100" relative="1" as="geometry">
            <mxPoint x="330" y="471" as="sourcePoint" />
            <mxPoint x="500" y="474" as="targetPoint" />
          </mxGeometry>
        </mxCell>
        <mxCell id="GAUOLHCDLPHEOuQpr5a8-210" value="&lt;span style=&quot;font-size: 15px;&quot;&gt;&lt;b&gt;L3_5&lt;/b&gt;&lt;/span&gt;" style="text;html=1;align=center;verticalAlign=middle;whiteSpace=wrap;rounded=0;" vertex="1" parent="1">
          <mxGeometry x="390.0000000000002" y="460" width="60" height="30" as="geometry" />
        </mxCell>
        <mxCell id="GAUOLHCDLPHEOuQpr5a8-212" value="&lt;span style=&quot;font-size: 15px;&quot;&gt;&lt;b&gt;L3_6&lt;/b&gt;&lt;/span&gt;" style="text;html=1;align=center;verticalAlign=middle;whiteSpace=wrap;rounded=0;" vertex="1" parent="1">
          <mxGeometry x="660.0000000000002" y="455" width="60" height="30" as="geometry" />
        </mxCell>
        <mxCell id="GAUOLHCDLPHEOuQpr5a8-215" value="" style="shape=link;html=1;rounded=0;" edge="1" parent="1" source="GAUOLHCDLPHEOuQpr5a8-124" target="GAUOLHCDLPHEOuQpr5a8-214">
          <mxGeometry width="100" relative="1" as="geometry">
            <mxPoint x="1040" y="476" as="sourcePoint" />
            <mxPoint x="1177" y="479" as="targetPoint" />
          </mxGeometry>
        </mxCell>
        <mxCell id="GAUOLHCDLPHEOuQpr5a8-214" value="&lt;b&gt;&lt;font style=&quot;font-size: 15px;&quot;&gt;L3_7&lt;/font&gt;&lt;/b&gt;" style="text;html=1;align=center;verticalAlign=middle;whiteSpace=wrap;rounded=0;" vertex="1" parent="1">
          <mxGeometry x="1080.0000000000002" y="460" width="60" height="30" as="geometry" />
        </mxCell>
        <mxCell id="GAUOLHCDLPHEOuQpr5a8-217" value="" style="shape=link;html=1;rounded=0;" edge="1" parent="1" source="GAUOLHCDLPHEOuQpr5a8-13" target="GAUOLHCDLPHEOuQpr5a8-216">
          <mxGeometry width="100" relative="1" as="geometry">
            <mxPoint x="1700" y="480" as="sourcePoint" />
            <mxPoint x="2120" y="480" as="targetPoint" />
          </mxGeometry>
        </mxCell>
        <mxCell id="GAUOLHCDLPHEOuQpr5a8-216" value="&lt;b&gt;&lt;font style=&quot;font-size: 15px;&quot;&gt;L3_9&lt;/font&gt;&lt;/b&gt;" style="text;html=1;align=center;verticalAlign=middle;whiteSpace=wrap;rounded=0;" vertex="1" parent="1">
          <mxGeometry x="1880.0000000000002" y="465" width="60" height="30" as="geometry" />
        </mxCell>
        <mxCell id="GAUOLHCDLPHEOuQpr5a8-219" value="" style="shape=link;html=1;rounded=0;" edge="1" parent="1" target="GAUOLHCDLPHEOuQpr5a8-218">
          <mxGeometry width="100" relative="1" as="geometry">
            <mxPoint x="-1200" y="-50" as="sourcePoint" />
            <mxPoint x="-790" y="-50" as="targetPoint" />
          </mxGeometry>
        </mxCell>
        <mxCell id="GAUOLHCDLPHEOuQpr5a8-218" value="&lt;span style=&quot;font-size: 15px;&quot;&gt;&lt;b&gt;L4_1&lt;/b&gt;&lt;/span&gt;" style="text;html=1;align=center;verticalAlign=middle;whiteSpace=wrap;rounded=0;" vertex="1" parent="1">
          <mxGeometry x="-1023.33" y="-65" width="60" height="30" as="geometry" />
        </mxCell>
        <mxCell id="GAUOLHCDLPHEOuQpr5a8-221" value="" style="shape=link;html=1;rounded=0;" edge="1" parent="1" source="pkGze3YQsq-xrmIJsWhv-50" target="GAUOLHCDLPHEOuQpr5a8-220">
          <mxGeometry width="100" relative="1" as="geometry">
            <mxPoint x="-257" y="-50" as="sourcePoint" />
            <mxPoint x="-30" y="-50" as="targetPoint" />
          </mxGeometry>
        </mxCell>
        <mxCell id="GAUOLHCDLPHEOuQpr5a8-220" value="&lt;b&gt;&lt;font style=&quot;font-size: 15px;&quot;&gt;L4_3&lt;/font&gt;&lt;/b&gt;" style="text;html=1;align=center;verticalAlign=middle;whiteSpace=wrap;rounded=0;" vertex="1" parent="1">
          <mxGeometry x="-180" y="-65" width="60" height="30" as="geometry" />
        </mxCell>
        <mxCell id="GAUOLHCDLPHEOuQpr5a8-223" value="" style="shape=link;html=1;rounded=0;" edge="1" parent="1" source="pkGze3YQsq-xrmIJsWhv-52" target="GAUOLHCDLPHEOuQpr5a8-222">
          <mxGeometry width="100" relative="1" as="geometry">
            <mxPoint x="103" y="-50" as="sourcePoint" />
            <mxPoint x="200" y="-50" as="targetPoint" />
          </mxGeometry>
        </mxCell>
        <mxCell id="GAUOLHCDLPHEOuQpr5a8-222" value="&lt;b&gt;&lt;font style=&quot;font-size: 15px;&quot;&gt;L4_4&lt;/font&gt;&lt;/b&gt;" style="text;html=1;align=center;verticalAlign=middle;whiteSpace=wrap;rounded=0;" vertex="1" parent="1">
          <mxGeometry x="120" y="-65" width="60" height="30" as="geometry" />
        </mxCell>
        <mxCell id="GAUOLHCDLPHEOuQpr5a8-225" value="" style="shape=link;html=1;rounded=0;" edge="1" parent="1" source="GAUOLHCDLPHEOuQpr5a8-109" target="GAUOLHCDLPHEOuQpr5a8-224">
          <mxGeometry width="100" relative="1" as="geometry">
            <mxPoint x="460" y="-50" as="sourcePoint" />
            <mxPoint x="620" y="-50" as="targetPoint" />
          </mxGeometry>
        </mxCell>
        <mxCell id="GAUOLHCDLPHEOuQpr5a8-224" value="&lt;b&gt;&lt;font style=&quot;font-size: 15px;&quot;&gt;L4_5&lt;/font&gt;&lt;/b&gt;" style="text;html=1;align=center;verticalAlign=middle;whiteSpace=wrap;rounded=0;" vertex="1" parent="1">
          <mxGeometry x="510" y="-65" width="60" height="30" as="geometry" />
        </mxCell>
        <mxCell id="GAUOLHCDLPHEOuQpr5a8-227" value="" style="shape=link;html=1;rounded=0;exitX=1;exitY=0.5;exitDx=0;exitDy=0;" edge="1" parent="1" source="GAUOLHCDLPHEOuQpr5a8-140" target="GAUOLHCDLPHEOuQpr5a8-226">
          <mxGeometry width="100" relative="1" as="geometry">
            <mxPoint x="1197" y="-50" as="sourcePoint" />
            <mxPoint x="1340" y="-50" as="targetPoint" />
          </mxGeometry>
        </mxCell>
        <mxCell id="GAUOLHCDLPHEOuQpr5a8-226" value="&lt;span style=&quot;font-size: 15px;&quot;&gt;&lt;b&gt;L4_7&lt;/b&gt;&lt;/span&gt;" style="text;html=1;align=center;verticalAlign=middle;whiteSpace=wrap;rounded=0;" vertex="1" parent="1">
          <mxGeometry x="1240" y="-65" width="60" height="30" as="geometry" />
        </mxCell>
        <mxCell id="GAUOLHCDLPHEOuQpr5a8-229" value="" style="shape=link;html=1;rounded=0;" edge="1" parent="1" source="GAUOLHCDLPHEOuQpr5a8-4" target="GAUOLHCDLPHEOuQpr5a8-228">
          <mxGeometry width="100" relative="1" as="geometry">
            <mxPoint x="1863" y="-50" as="sourcePoint" />
            <mxPoint x="2150" y="-50" as="targetPoint" />
          </mxGeometry>
        </mxCell>
        <mxCell id="GAUOLHCDLPHEOuQpr5a8-228" value="&lt;b&gt;&lt;font style=&quot;font-size: 15px;&quot;&gt;L4_9&lt;/font&gt;&lt;/b&gt;" style="text;html=1;align=center;verticalAlign=middle;whiteSpace=wrap;rounded=0;" vertex="1" parent="1">
          <mxGeometry x="1970" y="-65" width="60" height="30" as="geometry" />
        </mxCell>
        <mxCell id="GAUOLHCDLPHEOuQpr5a8-230" value="&lt;b&gt;&lt;font style=&quot;font-size: 15px;&quot;&gt;L5_3&lt;/font&gt;&lt;/b&gt;" style="text;html=1;align=center;verticalAlign=middle;whiteSpace=wrap;rounded=0;" vertex="1" parent="1">
          <mxGeometry x="1183.33" y="-295" width="60" height="30" as="geometry" />
        </mxCell>
        <mxCell id="GAUOLHCDLPHEOuQpr5a8-232" value="" style="shape=link;html=1;rounded=0;exitX=0.714;exitY=0.143;exitDx=0;exitDy=0;exitPerimeter=0;" edge="1" parent="1" source="GAUOLHCDLPHEOuQpr5a8-142" target="GAUOLHCDLPHEOuQpr5a8-230">
          <mxGeometry width="100" relative="1" as="geometry">
            <mxPoint x="1030" y="-270" as="sourcePoint" />
            <mxPoint x="1130" y="-270" as="targetPoint" />
          </mxGeometry>
        </mxCell>
        <mxCell id="GAUOLHCDLPHEOuQpr5a8-233" value="" style="shape=link;html=1;rounded=0;entryX=0.038;entryY=0.52;entryDx=0;entryDy=0;entryPerimeter=0;" edge="1" parent="1" source="GAUOLHCDLPHEOuQpr5a8-230" target="GAUOLHCDLPHEOuQpr5a8-41">
          <mxGeometry width="100" relative="1" as="geometry">
            <mxPoint x="1300" y="-320" as="sourcePoint" />
            <mxPoint x="1400" y="-320" as="targetPoint" />
          </mxGeometry>
        </mxCell>
        <mxCell id="GAUOLHCDLPHEOuQpr5a8-235" value="" style="shape=link;html=1;rounded=0;exitX=0.997;exitY=0.495;exitDx=0;exitDy=0;exitPerimeter=0;width=-8.461538461538462;" edge="1" parent="1" source="GAUOLHCDLPHEOuQpr5a8-40" target="GAUOLHCDLPHEOuQpr5a8-234">
          <mxGeometry width="100" relative="1" as="geometry">
            <mxPoint x="1996" y="-280" as="sourcePoint" />
            <mxPoint x="2150" y="-280" as="targetPoint" />
          </mxGeometry>
        </mxCell>
        <mxCell id="GAUOLHCDLPHEOuQpr5a8-234" value="&lt;b&gt;&lt;font style=&quot;font-size: 15px;&quot;&gt;L5_1&lt;/font&gt;&lt;/b&gt;" style="text;html=1;align=center;verticalAlign=middle;whiteSpace=wrap;rounded=0;" vertex="1" parent="1">
          <mxGeometry x="2040" y="-295" width="60" height="30" as="geometry" />
        </mxCell>
        <mxCell id="GAUOLHCDLPHEOuQpr5a8-240" value="" style="shape=link;html=1;rounded=0;exitX=0.546;exitY=-0.063;exitDx=0;exitDy=0;exitPerimeter=0;" edge="1" parent="1" source="GAUOLHCDLPHEOuQpr5a8-75" target="GAUOLHCDLPHEOuQpr5a8-239">
          <mxGeometry width="100" relative="1" as="geometry">
            <mxPoint x="137" y="808" as="sourcePoint" />
            <mxPoint x="181" y="604" as="targetPoint" />
          </mxGeometry>
        </mxCell>
        <mxCell id="GAUOLHCDLPHEOuQpr5a8-239" value="&lt;b&gt;MS24_L12&lt;/b&gt;" style="html=1;whiteSpace=wrap;aspect=fixed;shape=isoRectangle;fillColor=#ffe6cc;strokeColor=#d79b00;" vertex="1" parent="1">
          <mxGeometry x="83.33000000000004" y="720" width="133.33" height="80" as="geometry" />
        </mxCell>
        <mxCell id="GAUOLHCDLPHEOuQpr5a8-242" value="" style="shape=link;html=1;rounded=0;exitX=0.546;exitY=-0.063;exitDx=0;exitDy=0;exitPerimeter=0;" edge="1" parent="1" source="GAUOLHCDLPHEOuQpr5a8-239" target="GAUOLHCDLPHEOuQpr5a8-241">
          <mxGeometry width="100" relative="1" as="geometry">
            <mxPoint x="156" y="715" as="sourcePoint" />
            <mxPoint x="181" y="604" as="targetPoint" />
          </mxGeometry>
        </mxCell>
        <mxCell id="GAUOLHCDLPHEOuQpr5a8-241" value="&lt;span&gt;&lt;font style=&quot;font-size: 15px;&quot;&gt;L12_2_SW1_SW2&lt;/font&gt;&lt;/span&gt;" style="text;html=1;align=center;verticalAlign=middle;whiteSpace=wrap;rounded=0;fontStyle=1" vertex="1" parent="1">
          <mxGeometry x="90" y="660" width="150" height="30" as="geometry" />
        </mxCell>
        <mxCell id="GAUOLHCDLPHEOuQpr5a8-244" value="" style="shape=link;html=1;rounded=0;" edge="1" parent="1" source="GAUOLHCDLPHEOuQpr5a8-80" target="GAUOLHCDLPHEOuQpr5a8-243">
          <mxGeometry width="100" relative="1" as="geometry">
            <mxPoint x="850" y="810" as="sourcePoint" />
            <mxPoint x="888" y="609" as="targetPoint" />
            <Array as="points" />
          </mxGeometry>
        </mxCell>
        <mxCell id="GAUOLHCDLPHEOuQpr5a8-243" value="&lt;b&gt;MS24_L45&lt;/b&gt;" style="html=1;whiteSpace=wrap;aspect=fixed;shape=isoRectangle;fillColor=#ffe6cc;strokeColor=#d79b00;" vertex="1" parent="1">
          <mxGeometry x="796.6700000000001" y="710" width="133.33" height="80" as="geometry" />
        </mxCell>
        <mxCell id="GAUOLHCDLPHEOuQpr5a8-246" value="" style="shape=link;html=1;rounded=0;" edge="1" parent="1" source="GAUOLHCDLPHEOuQpr5a8-243" target="GAUOLHCDLPHEOuQpr5a8-245">
          <mxGeometry width="100" relative="1" as="geometry">
            <mxPoint x="871" y="710" as="sourcePoint" />
            <mxPoint x="889" y="609" as="targetPoint" />
            <Array as="points" />
          </mxGeometry>
        </mxCell>
        <mxCell id="GAUOLHCDLPHEOuQpr5a8-245" value="&lt;b&gt;&lt;font style=&quot;font-size: 15px;&quot;&gt;L14_2_SW4_SW5&lt;/font&gt;&lt;/b&gt;" style="text;html=1;align=center;verticalAlign=middle;whiteSpace=wrap;rounded=0;" vertex="1" parent="1">
          <mxGeometry x="800" y="660" width="150" height="30" as="geometry" />
        </mxCell>
      </root>
    </mxGraphModel>
  </diagram>
</mxfile>
